<svg width="180" height="207" viewBox="0 0 180 207" fill="none" xmlns="http://www.w3.org/2000/svg">
<path fill-rule="evenodd" clip-rule="evenodd" d="M89.7003 27.2999C139.3 27.2999 179.4 67.4999 179.4 117C179.4 166.6 139.2 206.7 89.7003 206.7C40.1003 206.7 0.000186163 166.5 0.000186163 117C-0.0998138 67.4999 40.1003 27.2999 89.7003 27.2999Z" fill="#EE6143"/>
<path fill-rule="evenodd" clip-rule="evenodd" d="M48.0004 142.8H52.5004C54.7004 142.8 56.6005 144.6 56.6005 146.9V166.5C56.6005 168.7 54.8004 170.6 52.5004 170.6H48.0004C45.8004 170.6 43.9004 168.8 43.9004 166.5V146.9C43.9004 144.7 45.7004 142.8 48.0004 142.8Z" fill="#1D1C1C"/>
<path fill-rule="evenodd" clip-rule="evenodd" d="M126.9 142.8H131.4C133.6 142.8 135.5 144.6 135.5 146.9V166.5C135.5 168.7 133.7 170.6 131.4 170.6H126.9C124.7 170.6 122.8 168.8 122.8 166.5V146.9C122.8 144.7 124.7 142.8 126.9 142.8Z" fill="#1D1C1C"/>
<path fill-rule="evenodd" clip-rule="evenodd" d="M44.5002 38.7999H89.7003H134.9L127.6 160.5C127.4 164.1 124.6 167.1 121 167.1H89.7003H58.4003C54.8003 167.1 52.0003 164.1 51.8003 160.5L44.5002 38.7999Z" fill="#EF3B41"/>
<path fill-rule="evenodd" clip-rule="evenodd" d="M127.7 159.4L127.6 160.5C127.4 164.1 124.6 167.1 121 167.1H89.7002H58.4001C54.8001 167.1 52.0002 164.1 51.8002 160.5L51.7002 159.4H127.7Z" fill="#E92825"/>
<path fill-rule="evenodd" clip-rule="evenodd" d="M44.5002 38.7999H89.7003H134.9L134.8 41.1H44.6003L44.5002 38.7999Z" fill="#B3292E"/>
<path fill-rule="evenodd" clip-rule="evenodd" d="M53.7004 0H125.6C127.4 0 128.9 1.49999 128.9 3.29999V16.5C128.9 18.3 127.4 19.8 125.6 19.8H53.7004C51.9004 19.8 50.4004 18.3 50.4004 16.5V3.29999C50.5004 1.39999 52.0004 0 53.7004 0Z" fill="#E92825"/>
<path fill-rule="evenodd" clip-rule="evenodd" d="M47.5001 8.59998H131.9C133.7 8.59998 135.2 10.1 135.2 11.9V25.1C135.2 26.9 133.7 28.4 131.9 28.4H47.5001C45.7001 28.4 44.2002 26.9 44.2002 25.1V11.9C44.2002 9.99996 45.7001 8.59998 47.5001 8.59998Z" fill="#EF3D3E"/>
<path fill-rule="evenodd" clip-rule="evenodd" d="M40.2004 19.2H139.1C140.9 19.2 142.4 20.6999 142.4 22.4999V35.7C142.4 37.5 140.9 38.9999 139.1 38.9999H40.2004C38.4004 38.9999 36.9004 37.5 36.9004 35.7V22.4999C37.0004 20.6999 38.4004 19.2 40.2004 19.2Z" fill="#F1666B"/>
<path fill-rule="evenodd" clip-rule="evenodd" d="M93.8003 92.9999L91.4003 94.2999C91.5003 94.2999 99.0003 95.4999 99.7003 95.5999L103.2 87.9999L101.5 88.8999C101.4 88.6999 99.3003 85.1999 99.3003 85.0999C98.4003 83.5999 97.1002 81.8999 95.5002 81.3999C95.0002 81.1999 94.7003 81.2999 94.1003 81.2999H86.6003C86.1003 81.2999 85.6003 81.2999 85.1003 81.2999C87.1003 81.5999 88.4003 83.2999 89.3003 84.7999L90.2003 86.4999C90.5003 87.0999 90.8003 87.5999 91.1003 88.1999C91.4003 88.7999 91.7002 89.2999 92.0002 89.8999C92.4002 90.6999 92.9003 91.5999 93.3003 92.3999C93.4003 92.2999 93.7003 92.7999 93.8003 92.9999Z" fill="white"/>
<path fill-rule="evenodd" clip-rule="evenodd" d="M92.1003 116.2C92.1003 116.3 92.3003 116.5 92.4003 116.6L95.2003 120.4C95.4003 120.7 95.6003 121 95.8003 121.2C95.9003 121.4 97.0003 122.8 97.1003 122.9V121C97.7003 120.9 99.4003 120.9 100.1 120.9C102.3 120.8 104.7 120.8 106.5 119.4C107.1 119 107.3 118.2 107.7 117.5C108.6 115.8 109.5 114 110.5 112.4L111.6 110.3C111.2 110.7 111 110.9 110.5 111.3C110.1 111.6 109.6 111.8 109.1 111.9C107.8 112.3 106.8 112.3 105.4 112.3C104 112.3 102.7 112.3 101.3 112.3C100.6 112.3 99.9003 112.3 99.3003 112.3C98.7003 112.3 97.9003 112.3 97.2003 112.3V109.6C97.1003 109.7 93.0003 115.1 92.4003 115.9C92.4003 115.9 92.2003 116.1 92.1003 116.2Z" fill="white"/>
<path fill-rule="evenodd" clip-rule="evenodd" d="M69.1004 99L70.7004 100C70.6004 100.2 70.5004 100.4 70.4004 100.5L69.5003 102.1C69.1003 102.8 68.7004 103.5 68.3004 104.2C67.9004 104.9 67.6004 105.7 67.4004 106.6C67.2004 107.4 67.0004 108.8 67.4004 109.5C67.8004 110.2 68.2004 110.9 68.6004 111.6C69.0004 112.3 69.4004 113 69.8004 113.7L71.6004 116.8C71.7004 117 71.8004 117.1 71.9004 117.3C72.0004 117.5 72.1004 117.7 72.2004 117.8C72.0004 117 71.9004 116.6 71.9004 115.7C72.0004 115 72.2004 114.3 72.4004 113.7C72.6004 113.1 72.9004 112.5 73.2004 112.1C73.5004 111.6 73.8004 111.1 74.1004 110.6L77.4004 105.2C77.5004 105.1 77.6004 105 77.6004 104.8C77.7004 104.7 77.8004 104.5 77.8004 104.4L80.2004 105.8L77.1004 98L69.1004 99Z" fill="white"/>
<path fill-rule="evenodd" clip-rule="evenodd" d="M82.1003 120.8L82.3002 112.1L74.8002 111.9L74.3002 112.6C73.3002 114.1 72.6002 115.5 73.0002 117.4C73.1002 117.7 73.2002 118.1 73.3002 118.3C73.5002 118.7 73.8003 119.1 74.1003 119.4C74.9003 120.1 76.2003 120.7 77.2003 120.7C77.7003 120.8 81.9003 120.9 82.1003 120.8Z" fill="white"/>
<path fill-rule="evenodd" clip-rule="evenodd" d="M77.7002 88.0999L85.1002 92.5999L88.6002 86.8999C88.7002 86.6999 88.9001 86.4998 89.0001 86.2998C89.1001 86.1998 88.8002 85.6999 88.8002 85.5999C88.2002 84.2999 87.2001 82.7999 86.0001 82.1999C85.8001 82.0999 85.6002 81.9999 85.3002 81.8999C84.8002 81.6999 84.2001 81.5999 83.5001 81.6999C82.4001 81.8999 81.6002 82.4999 80.8002 83.0999C80.7002 83.1999 80.4002 83.4999 80.3002 83.5999C80.0002 83.9999 78.7001 86.1998 78.4001 86.7998L77.7002 88.0999Z" fill="white"/>
<path fill-rule="evenodd" clip-rule="evenodd" d="M101.6 104.8L105.4 111.3C106.8 111.5 108.9 111.3 110 110.8L110.8 110.3C112.4 109.2 112.5 107.3 112 105.5C111.8 104.9 111.4 104.3 111.1 103.8C110.5 102.7 109.8 101.6 109.2 100.5L101.6 104.8Z" fill="white"/>
<path fill-rule="evenodd" clip-rule="evenodd" d="M75.6003 11H103.7C104.8 11 105.7 11.9 105.7 13V17.9H73.6003V13C73.7003 11.9 74.5003 11 75.6003 11Z" fill="#B3292E"/>
<path fill-rule="evenodd" clip-rule="evenodd" d="M65.8003 55H113.5C115.9 55 117.8 56.9 117.8 59.3V63.9C117.8 66.3 115.9 68.2 113.5 68.2H65.8003C63.4003 68.2 61.5002 66.3 61.5002 63.9V59.3C61.5002 57 63.4003 55 65.8003 55Z" fill="white"/>
<path d="M85.1666 99.0001C84.529 99.0001 84 99.552 84 100.217V105.783C84 106.448 84.529 107 85.1666 107H96.1667C96.8044 107 97.3333 106.448 97.3333 105.783V104.913H97.8334C98.471 104.913 99 104.361 99 103.696V102.304C99 101.639 98.471 101.087 97.8334 101.087H97.3333V100.217C97.3333 99.552 96.8044 99 96.1667 99L85.1666 99.0001ZM85.1666 100.044H96.1667C96.2676 100.044 96.3333 100.112 96.3333 100.217V105.783C96.3333 105.888 96.2676 105.957 96.1667 105.957H85.1666C85.0657 105.957 85 105.888 85 105.783V100.217C85 100.112 85.0657 100.044 85.1666 100.044ZM94.1616 101.25C94.028 101.252 93.9006 101.309 93.8077 101.409C93.7147 101.509 93.664 101.643 93.6668 101.783V102.478H93.0001C92.9828 102.477 92.9654 102.477 92.948 102.478C92.8155 102.486 92.691 102.547 92.602 102.65C92.5132 102.753 92.467 102.889 92.474 103.027C92.4809 103.166 92.5402 103.296 92.6389 103.388C92.7376 103.481 92.8675 103.529 93.0001 103.522H93.6668V104.217C93.665 104.357 93.7167 104.492 93.8107 104.591C93.9047 104.691 94.0329 104.747 94.1668 104.747C94.3007 104.747 94.4289 104.691 94.5228 104.591C94.6169 104.492 94.6687 104.357 94.6668 104.217V103.522H95.3335C95.4673 103.524 95.5963 103.47 95.6916 103.372C95.7869 103.274 95.8406 103.14 95.8406 103C95.8406 102.86 95.7869 102.727 95.6916 102.629C95.5963 102.531 95.4673 102.476 95.3335 102.478H94.6668V101.783C94.6697 101.642 94.6175 101.505 94.5223 101.405C94.427 101.304 94.2969 101.249 94.1616 101.25L94.1616 101.25ZM97.3334 102.131H97.8334C97.9343 102.131 98 102.199 98 102.305V103.696C98 103.801 97.9343 103.87 97.8334 103.87H97.3334V102.131ZM85.9479 102.478C85.8152 102.486 85.6908 102.547 85.6019 102.65C85.513 102.753 85.4669 102.889 85.4739 103.027C85.4808 103.166 85.5401 103.296 85.6388 103.388C85.7375 103.481 85.8673 103.529 86 103.522H88.3334C88.4672 103.524 88.5961 103.47 88.6915 103.372C88.7868 103.274 88.8405 103.14 88.8405 103C88.8405 102.861 88.7868 102.727 88.6915 102.629C88.5961 102.531 88.4672 102.476 88.3334 102.478H86C85.9827 102.477 85.9652 102.477 85.9479 102.478L85.9479 102.478Z" fill="white"/>
</svg>
