<svg width="180" height="207" viewBox="0 0 180 207" fill="none" xmlns="http://www.w3.org/2000/svg">
<path fill-rule="evenodd" clip-rule="evenodd" d="M89.7001 27.3C139.3 27.3 179.4 67.5 179.4 117C179.4 166.6 139.2 206.7 89.7001 206.7C40.1001 206.7 0.000186163 166.5 0.000186163 117C-0.0998138 67.5 40.1001 27.3 89.7001 27.3Z" fill="#694237" fill-opacity="0.86"/>
<path fill-rule="evenodd" clip-rule="evenodd" d="M47.9999 142.8H52.4999C54.6999 142.8 56.5999 144.6 56.5999 146.9V166.5C56.5999 168.7 54.7999 170.6 52.4999 170.6H47.9999C45.7999 170.6 43.8999 168.8 43.8999 166.5V146.9C43.8999 144.7 45.6999 142.8 47.9999 142.8Z" fill="#1D1C1C"/>
<path fill-rule="evenodd" clip-rule="evenodd" d="M126.9 142.8H131.4C133.6 142.8 135.5 144.6 135.5 146.9V166.5C135.5 168.7 133.7 170.6 131.4 170.6H126.9C124.7 170.6 122.8 168.8 122.8 166.5V146.9C122.8 144.7 124.7 142.8 126.9 142.8Z" fill="#1D1C1C"/>
<path fill-rule="evenodd" clip-rule="evenodd" d="M44.5004 38.8H89.7003H134.9L127.6 160.5C127.4 164.1 124.6 167.1 121 167.1H89.7003H58.4003C54.8003 167.1 52.0003 164.1 51.8003 160.5L44.5004 38.8Z" fill="#5A3A31"/>
<path fill-rule="evenodd" clip-rule="evenodd" d="M127.7 159.4L127.6 160.5C127.4 164.1 124.6 167.1 121 167.1H89.7002H58.4002C54.8002 167.1 52.0002 164.1 51.8002 160.5L51.7002 159.4H89.7002H127.7Z" fill="#513831"/>
<path fill-rule="evenodd" clip-rule="evenodd" d="M44.5004 38.8H89.7003H134.9L134.8 41.1001H44.6003L44.5004 38.8Z" fill="#513831"/>
<path fill-rule="evenodd" clip-rule="evenodd" d="M53.7 0H125.6C127.4 0 128.9 1.49999 128.9 3.29999V16.5C128.9 18.3 127.4 19.8 125.6 19.8H53.7C51.9 19.8 50.4 18.3 50.4 16.5V3.29999C50.5 1.39999 52 0 53.7 0Z" fill="#513831"/>
<path fill-rule="evenodd" clip-rule="evenodd" d="M47.5004 8.6001H131.9C133.7 8.6001 135.2 10.1001 135.2 11.9001V25.1001C135.2 26.9001 133.7 28.4001 131.9 28.4001H47.5004C45.7004 28.4001 44.2003 26.9001 44.2003 25.1001V11.9001C44.2003 10.0001 45.7004 8.6001 47.5004 8.6001Z" fill="#5A3A31"/>
<path fill-rule="evenodd" clip-rule="evenodd" d="M40.2001 19.2H139.1C140.9 19.2 142.4 20.6999 142.4 22.4999V35.6999C142.4 37.4999 140.9 38.9999 139.1 38.9999H40.2001C38.4001 38.9999 36.9001 37.4999 36.9001 35.6999V22.4999C37.0001 20.6999 38.4001 19.2 40.2001 19.2Z" fill="#694237"/>
<path fill-rule="evenodd" clip-rule="evenodd" d="M93.8 96L91.4 97.3C91.5 97.3 98.9999 98.5 99.6999 98.6L103.2 91L101.5 91.9C101.4 91.7 99.3 88.2001 99.3 88.1001C98.4 86.6001 97.1 84.9 95.5 84.4C95 84.2 94.7 84.3 94.1 84.3H86.6C86.1 84.3 85.6 84.3 85.1 84.3C87.1 84.6 88.4 86.3 89.3 87.8L90.1999 89.5C90.4999 90.1 90.8 90.6 91.1 91.2C91.4 91.8 91.7 92.3 92 92.9C92.4 93.7 92.9 94.6 93.3 95.4C93.4 95.3 93.7 95.8 93.8 96Z" fill="white"/>
<path fill-rule="evenodd" clip-rule="evenodd" d="M89.1 115.2C89.1 115.3 89.3 115.5 89.4 115.6L92.1999 119.4C92.3999 119.7 92.6 120 92.8 120.2C92.9 120.4 94 121.8 94.1 121.9V120C94.7 119.9 96.4 119.9 97.1 119.9C99.3 119.8 101.7 119.8 103.5 118.4C104.1 118 104.3 117.2 104.7 116.5C105.6 114.8 106.5 113 107.5 111.4L108.6 109.3C108.2 109.7 108 109.9 107.5 110.3C107.1 110.6 106.6 110.8 106.1 110.9C104.8 111.3 103.8 111.3 102.4 111.3C101 111.3 99.7 111.3 98.3 111.3C97.6 111.3 96.9 111.3 96.3 111.3C95.7 111.3 94.8999 111.3 94.1999 111.3V108.6C94.0999 108.7 90 114.1 89.4 114.9C89.4 114.9 89.2 115.1 89.1 115.2Z" fill="white"/>
<path fill-rule="evenodd" clip-rule="evenodd" d="M72.0999 98L73.6999 99C73.5999 99.2 73.4999 99.4 73.3999 99.5L72.4999 101.1C72.0999 101.8 71.6999 102.5 71.2999 103.2C70.8999 103.9 70.5999 104.7 70.3999 105.6C70.1999 106.4 69.9999 107.8 70.3999 108.5C70.7999 109.2 71.1999 109.9 71.5999 110.6C71.9999 111.3 72.3999 112 72.7999 112.7L74.5999 115.8C74.6999 116 74.7999 116.1 74.8999 116.3C74.9999 116.5 75.0999 116.7 75.1999 116.8C74.9999 116 74.8999 115.6 74.8999 114.7C74.9999 114 75.1999 113.3 75.3999 112.7C75.5999 112.1 75.8999 111.5 76.1999 111.1C76.4999 110.6 76.7999 110.1 77.0999 109.6L80.3999 104.2C80.4999 104.1 80.5999 104 80.5999 103.8C80.6999 103.7 80.7999 103.5 80.7999 103.4L83.1999 104.8L80.0999 97L72.0999 98Z" fill="white"/>
<path fill-rule="evenodd" clip-rule="evenodd" d="M85.1003 119.8L85.3003 111.1L77.8003 110.9L77.3003 111.6C76.3003 113.1 75.6003 114.5 76.0003 116.4C76.1003 116.7 76.2003 117.1 76.3003 117.3C76.5003 117.7 76.8003 118.1 77.1003 118.4C77.9003 119.1 79.2003 119.7 80.2003 119.7C80.7003 119.8 84.9003 119.9 85.1003 119.8Z" fill="white"/>
<path fill-rule="evenodd" clip-rule="evenodd" d="M77.7002 91.1L85.1002 95.6L88.6002 89.9C88.7002 89.7 88.9002 89.5 89.0002 89.3C89.1002 89.2 88.8002 88.7 88.8002 88.6C88.2002 87.3 87.2002 85.8 86.0002 85.2C85.8002 85.1 85.6002 85 85.3002 84.9C84.8002 84.7 84.2002 84.6 83.5002 84.7C82.4002 84.9 81.6002 85.5 80.8002 86.1C80.7002 86.2 80.4002 86.5 80.3002 86.6C80.0002 87 78.7002 89.2 78.4002 89.8L77.7002 91.1Z" fill="white"/>
<path fill-rule="evenodd" clip-rule="evenodd" d="M98.6 103.8L102.4 110.3C103.8 110.5 105.9 110.3 107 109.8L107.8 109.3C109.4 108.2 109.5 106.3 109 104.5C108.8 103.9 108.4 103.3 108.1 102.8C107.5 101.7 106.8 100.6 106.2 99.5L98.6 103.8Z" fill="white"/>
<path fill-rule="evenodd" clip-rule="evenodd" d="M75.5999 11.0001H103.7C104.8 11.0001 105.7 11.9001 105.7 13.0001V17.9001H73.5999V13.0001C73.6999 11.9001 74.4999 11.0001 75.5999 11.0001Z" fill="#292E2A"/>
<path fill-rule="evenodd" clip-rule="evenodd" d="M65.8001 56.5H113.5C115.9 56.5 117.8 58.4 117.8 60.8V65.4C117.8 67.8 115.9 69.7 113.5 69.7H65.8001C63.4001 69.7 61.5001 67.8 61.5001 65.4V60.8C61.5001 58.4 63.4001 56.5 65.8001 56.5Z" fill="white"/>
</svg>
