<svg width="180" height="207" viewBox="0 0 180 207" fill="none" xmlns="http://www.w3.org/2000/svg">
<path fill-rule="evenodd" clip-rule="evenodd" d="M89.7002 27.2999C139.3 27.2999 179.4 67.4999 179.4 117C179.4 166.6 139.2 206.7 89.7002 206.7C40.1002 206.7 0.000186163 166.5 0.000186163 117C-0.0998138 67.4999 40.1002 27.2999 89.7002 27.2999Z" fill="#807C7A"/>
<path fill-rule="evenodd" clip-rule="evenodd" d="M47.9002 142.8H52.4002C54.6002 142.8 56.5002 144.6 56.5002 146.9V166.5C56.5002 168.7 54.7002 170.6 52.4002 170.6H47.9002C45.7002 170.6 43.8002 168.8 43.8002 166.5V146.9C43.9002 144.7 45.7002 142.8 47.9002 142.8Z" fill="#1D1C1C"/>
<path fill-rule="evenodd" clip-rule="evenodd" d="M126.9 142.8H131.4C133.6 142.8 135.5 144.6 135.5 146.9V166.5C135.5 168.7 133.7 170.6 131.4 170.6H126.9C124.7 170.6 122.8 168.8 122.8 166.5V146.9C122.8 144.7 124.6 142.8 126.9 142.8Z" fill="#1D1C1C"/>
<path fill-rule="evenodd" clip-rule="evenodd" d="M44.4001 38.7999H89.7001H134.9L127.6 160.5C127.4 164.1 124.6 167.1 121 167.1H89.7001H58.4001C54.8001 167.1 52.0002 164.1 51.8002 160.5L44.4001 38.7999Z" fill="#696A6D"/>
<path fill-rule="evenodd" clip-rule="evenodd" d="M127.7 159.4L127.6 160.5C127.4 164.1 124.6 167.1 121 167.1H89.7002H58.4002C54.8002 167.1 52.0002 164.1 51.8002 160.5L51.7002 159.4H127.7Z" fill="#5D5D61"/>
<path fill-rule="evenodd" clip-rule="evenodd" d="M44.4001 38.7999H89.7001H134.9L134.7 41.1H44.6001L44.4001 38.7999Z" fill="#555456"/>
<path fill-rule="evenodd" clip-rule="evenodd" d="M53.7001 0H125.6C127.4 0 128.9 1.49999 128.9 3.29999V16.5C128.9 18.3 127.4 19.8 125.6 19.8H53.7001C51.9001 19.8 50.4001 18.3 50.4001 16.5V3.29999C50.5001 1.39999 51.9001 0 53.7001 0Z" fill="#555456"/>
<path fill-rule="evenodd" clip-rule="evenodd" d="M47.5002 8.59998H131.9C133.7 8.59998 135.2 10.1 135.2 11.9V25.1C135.2 26.9 133.7 28.4 131.9 28.4H47.5002C45.7002 28.4 44.2002 26.9 44.2002 25.1V11.9C44.2002 9.99996 45.7002 8.59998 47.5002 8.59998Z" fill="#6D6A69"/>
<path fill-rule="evenodd" clip-rule="evenodd" d="M40.2001 19.2H139.1C140.9 19.2 142.4 20.6999 142.4 22.4999V35.7C142.4 37.5 140.9 38.9999 139.1 38.9999H40.2001C38.4001 38.9999 36.9001 37.5 36.9001 35.7V22.4999C37.0001 20.6999 38.4001 19.2 40.2001 19.2Z" fill="#807C7A"/>
<path fill-rule="evenodd" clip-rule="evenodd" d="M93.7002 95.9999L91.3002 97.2999C91.4002 97.2999 98.9002 98.4999 99.6002 98.5999L103.1 90.9999L101.4 91.8999C101.3 91.6999 99.2002 88.1999 99.2002 88.0999C98.3002 86.5999 97.0002 84.8999 95.4002 84.3999C94.9002 84.1999 94.6002 84.2999 94.0002 84.2999H86.5002C86.0002 84.2999 85.5002 84.2999 85.0002 84.2999C87.0002 84.5999 88.3002 86.2999 89.2002 87.7999L90.1002 89.4999C90.4002 90.0999 90.7002 90.5999 91.0002 91.1999C91.3002 91.7999 91.6002 92.2999 91.9002 92.8999C92.3002 93.6999 92.8002 94.5999 93.2002 95.3999C93.4002 95.2999 93.7002 95.7999 93.7002 95.9999Z" fill="white"/>
<path fill-rule="evenodd" clip-rule="evenodd" d="M89.1002 115.2C89.1002 115.3 89.3002 115.5 89.4002 115.6L92.2002 119.4C92.4002 119.7 92.6002 120 92.8002 120.2C92.9002 120.4 94.0002 121.8 94.1002 121.9V120C94.7002 119.9 96.4002 119.9 97.1002 119.9C99.3002 119.8 101.7 119.8 103.5 118.4C104.1 118 104.3 117.2 104.7 116.5C105.6 114.8 106.5 113 107.5 111.4L108.6 109.3C108.2 109.7 108 109.9 107.5 110.3C107.1 110.6 106.6 110.8 106.1 110.9C104.8 111.3 103.8 111.3 102.4 111.3C101 111.3 99.7002 111.3 98.3002 111.3C97.6002 111.3 96.9002 111.3 96.3002 111.3C95.7002 111.3 94.9002 111.3 94.2002 111.3V108.6C94.1002 108.7 90.0002 114.1 89.4002 114.9C89.3002 114.9 89.2002 115.1 89.1002 115.2Z" fill="white"/>
<path fill-rule="evenodd" clip-rule="evenodd" d="M72.0002 98L73.6001 99C73.5001 99.2 73.4002 99.4 73.3002 99.5L72.4001 101.1C72.0001 101.8 71.6001 102.5 71.2001 103.2C70.8001 103.9 70.5002 104.7 70.3002 105.6C70.1002 106.4 69.9002 107.8 70.3002 108.5C70.7002 109.2 71.1002 109.9 71.5002 110.6C71.9002 111.3 72.3001 112 72.7001 112.7L74.5002 115.8C74.6002 116 74.7002 116.1 74.8002 116.3C74.9002 116.5 75.0001 116.7 75.1001 116.8C74.9001 116 74.8002 115.6 74.8002 114.7C74.9002 114 75.1002 113.3 75.3002 112.7C75.5002 112.1 75.8001 111.5 76.1001 111.1C76.4001 110.6 76.7002 110.1 77.0002 109.6L80.3002 104.2C80.4002 104.1 80.5002 104 80.5002 103.8C80.6002 103.7 80.7001 103.5 80.7001 103.4L83.1001 104.8L80.0002 97L72.0002 98Z" fill="white"/>
<path fill-rule="evenodd" clip-rule="evenodd" d="M85.1002 119.8L85.3002 111.1L77.8002 110.9L77.3002 111.6C76.3002 113.1 75.6002 114.5 76.0002 116.4C76.1002 116.7 76.2002 117.1 76.3002 117.3C76.5002 117.7 76.8002 118.1 77.1002 118.4C77.9002 119.1 79.2002 119.7 80.2002 119.7C80.7002 119.8 84.9002 119.9 85.1002 119.8Z" fill="white"/>
<path fill-rule="evenodd" clip-rule="evenodd" d="M77.7002 91.0999L85.1002 95.5999L88.6002 89.8999C88.7002 89.6999 88.9002 89.4998 89.0002 89.2998C89.1002 89.1998 88.8002 88.6999 88.8002 88.5999C88.2002 87.2999 87.2002 85.7999 86.0002 85.1999C85.8002 85.0999 85.6002 84.9999 85.3002 84.8999C84.8002 84.6999 84.2002 84.5999 83.5002 84.6999C82.4002 84.8999 81.6002 85.4999 80.8002 86.0999C80.7002 86.1999 80.4002 86.4999 80.3002 86.5999C80.0002 86.9999 78.7002 89.1998 78.4002 89.7998L77.7002 91.0999Z" fill="white"/>
<path fill-rule="evenodd" clip-rule="evenodd" d="M98.6002 103.8L102.4 110.3C103.8 110.5 105.9 110.3 107 109.8L107.8 109.3C109.4 108.2 109.5 106.3 109 104.5C108.8 103.9 108.4 103.3 108.1 102.8C107.5 101.7 106.8 100.6 106.2 99.5L98.6002 103.8Z" fill="white"/>
<path fill-rule="evenodd" clip-rule="evenodd" d="M75.6002 11H103.7C104.8 11 105.7 11.9 105.7 13V17.9H73.6002V13C73.6002 11.9 74.5002 11 75.6002 11Z" fill="#555456"/>
<path fill-rule="evenodd" clip-rule="evenodd" d="M65.8002 56.5H113.5C115.9 56.5 117.8 58.4 117.8 60.8V65.4C117.8 67.8 115.9 69.7 113.5 69.7H65.8002C63.4002 69.7 61.5002 67.8 61.5002 65.4V60.8C61.5002 58.4 63.4002 56.5 65.8002 56.5Z" fill="white"/>
</svg>
