<svg width="120" height="128" viewBox="0 0 120 128" fill="none" xmlns="http://www.w3.org/2000/svg">
<g clip-path="url(#clip0_35_202)">
<path fill-rule="evenodd" clip-rule="evenodd" d="M59.9703 0.17627C93.1311 0.17627 119.94 27.1284 119.94 60.3158C119.94 93.5702 93.0642 120.455 59.9703 120.455C26.8095 120.455 0.000124462 93.5032 0.000124462 60.3158C-0.0667319 27.1284 26.8095 0.17627 59.9703 0.17627Z" fill="#D0B8C7"/>
<path d="M31.1003 80.2615C31.3703 88.8204 35.9964 95.6567 41.6442 95.6567C47.2919 95.6567 51.9181 88.8204 52.1887 80.2615H49.6112C49.3719 87.3089 45.959 92.7198 41.6442 92.7198C37.3302 92.7198 33.9165 87.3089 33.6772 80.2615H31.1003Z" fill="#393E41"/>
<path d="M18.6425 69.5008L29.7115 78.6787H34.4544C34.6369 78.6787 34.8028 78.7434 34.9368 78.8477L34.9387 78.8451C34.9713 78.8707 38.2585 81.3942 41.6453 81.3942C45.0322 81.3942 48.3187 78.8708 48.3519 78.8451L48.3538 78.8477C48.4872 78.7434 48.6531 78.6787 48.8363 78.6787H49.4329L52.4068 74.9542L48.3723 70.1761C48.0941 69.8459 48.1305 69.3531 48.4553 69.0684L49.8637 67.8338L47.2447 64.8292C46.9575 64.5002 46.9914 63.9997 47.3194 63.7118L63.7562 49.3002C63.0102 49.4116 62.1806 49.4896 61.321 49.4896C59.4664 49.4896 57.4767 49.1261 55.8985 47.946C52.4651 45.3797 53.2718 39.8517 53.6886 37.8927C48.2156 35.786 42.0879 35.2426 34.994 36.2339L32.7138 46.4927L38.082 46.9438L38.8338 46.1599C39.1357 45.8444 39.636 45.8348 39.95 46.1381C40.2646 46.4408 40.2741 46.9426 39.9717 47.2574L18.6425 69.5008Z" fill="#393E41"/>
<path d="M41.646 91.1365C44.835 91.1365 47.5669 86.6234 47.9887 80.9846C46.5675 81.8319 44.1795 82.9768 41.646 82.9768C39.1124 82.9768 36.725 81.8319 35.3032 80.9846C35.725 86.6234 38.4571 91.1365 41.646 91.1365V91.1365Z" fill="#393E41"/>
<path d="M110.172 57.6706C110.193 56.3158 109.112 55.1893 107.761 55.1593L102.992 55.0537C102.333 55.0403 101.704 55.2848 101.227 55.7449C100.75 56.2057 100.482 56.8246 100.472 57.4883L100.46 58.294L110.161 58.4751L110.172 57.6706Z" fill="#393E41"/>
<path d="M56.8412 46.677C58.9165 48.229 62.0608 48.0133 64.1706 47.6191C62.4354 46.7909 60.8399 45.7766 59.4137 44.5804C57.7435 43.1802 56.2681 41.5048 55.007 39.5886C54.7326 41.7389 54.7141 45.0872 56.8412 46.677V46.677Z" fill="#393E41"/>
<path d="M48.9503 64.3827L71.177 44.8948L73.2767 47.303L51.05 66.7909L48.9503 64.3827Z" fill="#393E41"/>
<path d="M114.575 88.1875L112.057 60.0951L99.2296 59.8558L99.1262 69.6717L109.022 80.5633C109.315 80.8865 109.292 81.3876 108.97 81.6819C108.818 81.8202 108.629 81.8886 108.438 81.8886C108.224 81.8886 108.01 81.8016 107.854 81.6301L85.9888 57.5614C84.8899 58.0344 83.7967 58.2724 82.7124 58.2724C80.1329 58.2724 77.6019 56.9368 75.1507 54.2733C74.8552 53.952 74.875 53.4509 75.1954 53.1546C75.5164 52.8576 76.0154 52.8781 76.3109 53.1994C79.1528 56.2873 81.9556 57.31 84.849 56.3071L76.2299 46.8196L50.079 69.748L57.6209 78.6795H58.7332C59.7013 76.0421 59.007 73.2692 56.6616 70.4277C56.3834 70.0911 56.4306 69.5919 56.7663 69.3129C57.102 69.0339 57.5998 69.0812 57.878 69.4179C60.4204 72.4974 61.2769 75.6754 60.3956 78.6795H62.1422C64.2322 78.6795 65.9322 80.3843 65.9322 82.4802V88.5222L86.981 113.449C87.5228 114.091 88.2822 114.479 89.1182 114.542C89.9536 114.605 90.7628 114.335 91.3947 113.782L96.7227 109.11C97.5319 108.401 97.9142 107.341 97.7457 106.277L95.3456 91.12L84.953 79.8123C83.8496 79.8673 82.8248 80.0926 81.9026 80.4862C81.0825 80.8369 80.3205 81.3322 79.6288 81.9581L91.6206 98.0316C91.8816 98.3817 91.8107 98.8777 91.461 99.14C91.3193 99.2463 91.1534 99.2975 90.9888 99.2975C90.7482 99.2975 90.5114 99.188 90.3557 98.98L72.7753 75.4143C71.8085 74.1184 72.0031 72.2682 73.2182 71.2033L74.2463 70.3022C75.5239 69.1823 77.425 69.2847 78.575 70.5365L102.238 96.2812C103.586 97.7486 105.817 97.8689 107.314 96.5557L113.346 91.2677C114.221 90.4997 114.68 89.349 114.577 88.1888L114.575 88.1875Z" fill="#393E41"/>
<path d="M81.2832 79.0293C82.0146 78.7163 82.797 78.4943 83.6196 78.3612L80.4995 74.9661C79.4983 75.5568 78.74 76.2082 78.2455 76.9083C77.7624 77.5918 77.525 78.3201 77.5167 79.1264L78.6795 80.6848C79.4714 79.9872 80.3439 79.4304 81.2833 79.0292L81.2832 79.0293Z" fill="#393E41"/>
<path d="M62.1426 80.2613H53.7692C53.639 84.6553 52.4284 88.7685 50.325 91.9159C48.0308 95.3487 44.9484 97.2398 41.6459 97.2398C38.3433 97.2398 35.261 95.3493 32.9668 91.9159C30.8633 88.7685 29.6528 84.6555 29.5226 80.2613H21.1491C19.9296 80.2613 18.9379 81.2558 18.9379 82.4788V125.283C18.9379 126.506 19.9296 127.501 21.1491 127.501H25.3884C24.465 126.002 23.9168 124.107 23.756 121.844C23.7254 121.407 24.0527 121.029 24.4873 120.998C24.9194 120.965 25.2997 121.295 25.331 121.731C25.5059 124.201 26.1798 126.14 27.3336 127.5H29.9386C29.5276 126.835 29.1881 126.094 28.9284 125.281C28.7956 124.864 29.0247 124.419 29.4402 124.286C29.8556 124.153 30.2998 124.382 30.4325 124.799C30.7701 125.858 31.2577 126.764 31.8831 127.501H51.4093C52.0347 126.765 52.5229 125.858 52.8598 124.8C52.9926 124.383 53.438 124.154 53.8522 124.286C54.2676 124.419 54.4967 124.865 54.364 125.282C54.1049 126.095 53.7654 126.835 53.3537 127.502H55.9581C57.1119 126.141 57.7852 124.203 57.9607 121.732C57.9919 121.296 58.3697 120.969 58.8043 120.999C59.2389 121.03 59.5663 121.408 59.5357 121.845C59.3749 124.108 58.8267 126.003 57.9032 127.502H62.1426C63.3621 127.502 64.3538 126.508 64.3538 125.285V82.4785C64.3544 81.2555 63.3621 80.261 62.1432 80.261L62.1426 80.2613ZM59.537 111.006C59.537 111.443 59.1835 111.798 58.7476 111.798H24.5441C24.1083 111.798 23.7547 111.443 23.7547 111.006V101.194C23.7547 100.757 24.1083 100.402 24.5441 100.402H58.7476C59.1835 100.402 59.537 100.757 59.537 101.194V111.006Z" fill="#393E41"/>
<path d="M25.3331 101.987H57.9584V110.216H25.3331V101.987Z" fill="#393E41"/>
</g>
<defs>
<clipPath id="clip0_35_202">
<rect width="120" height="127.619" fill="white"/>
</clipPath>
</defs>
</svg>
