<svg width="180" height="207" viewBox="0 0 180 207" fill="none" xmlns="http://www.w3.org/2000/svg">
<g clip-path="url(#clip0_23_52)">
<path fill-rule="evenodd" clip-rule="evenodd" d="M89.7001 27.2999C139.3 27.2999 179.4 67.4999 179.4 117C179.4 166.6 139.2 206.7 89.7001 206.7C40.2001 206.7 0.000186163 166.5 0.000186163 117C-0.0998138 67.4999 40.1001 27.2999 89.7001 27.2999Z" fill="#FFE846"/>
<path fill-rule="evenodd" clip-rule="evenodd" d="M48.0002 142.8H52.5002C54.7002 142.8 56.6002 144.6 56.6002 146.9V166.5C56.6002 168.7 54.8002 170.6 52.5002 170.6H48.0002C45.8002 170.6 43.9001 168.8 43.9001 166.5V146.9C43.9001 144.7 45.7002 142.8 48.0002 142.8Z" fill="#1D1C1C"/>
<path fill-rule="evenodd" clip-rule="evenodd" d="M126.9 142.8H131.4C133.6 142.8 135.5 144.6 135.5 146.9V166.5C135.5 168.7 133.7 170.6 131.4 170.6H126.9C124.7 170.6 122.8 168.8 122.8 166.5V146.9C122.9 144.7 124.7 142.8 126.9 142.8Z" fill="#1D1C1C"/>
<path fill-rule="evenodd" clip-rule="evenodd" d="M44.5 38.7999H89.7H134.9L127.6 160.5C127.4 164.1 124.6 167.1 121 167.1H89.7H58.4C54.8 167.1 52 164.1 51.8 160.5L44.5 38.7999Z" fill="#FEC348"/>
<path fill-rule="evenodd" clip-rule="evenodd" d="M127.7 159.4L127.6 160.5C127.4 164.1 124.6 167.1 121 167.1H89.7002H58.4002C54.8002 167.1 52.0002 164.1 51.8002 160.5L51.7002 159.4H127.7Z" fill="#FBAC47"/>
<path fill-rule="evenodd" clip-rule="evenodd" d="M44.5 38.7999H89.7H134.9L134.8 41.1H44.6L44.5 38.7999Z" fill="#F89844"/>
<path fill-rule="evenodd" clip-rule="evenodd" d="M53.8 0H125.7C127.5 0 129 1.49999 129 3.29999V16.5C129 18.3 127.5 19.8 125.7 19.8H53.8C52 19.8 50.5 18.3 50.5 16.5V3.29999C50.5 1.39999 52 0 53.8 0Z" fill="#FBAC47"/>
<path fill-rule="evenodd" clip-rule="evenodd" d="M47.5002 8.59998H131.9C133.7 8.59998 135.2 10.1 135.2 11.9V25.1C135.2 26.9 133.7 28.4 131.9 28.4H47.5002C45.7002 28.4 44.2002 26.9 44.2002 25.1V11.9C44.3002 9.99996 45.7002 8.59998 47.5002 8.59998Z" fill="#FEC348"/>
<path fill-rule="evenodd" clip-rule="evenodd" d="M40.2001 19.2H139.1C140.9 19.2 142.4 20.6999 142.4 22.4999V35.7C142.4 37.5 140.9 38.9999 139.1 38.9999H40.2001C38.4001 38.9999 36.9001 37.5 36.9001 35.7V22.4999C37.0001 20.6999 38.5001 19.2 40.2001 19.2Z" fill="#FFE846"/>
<path fill-rule="evenodd" clip-rule="evenodd" d="M75.7002 11H103.8C104.9 11 105.8 11.9 105.8 13V17.9H73.7002V13C73.7002 11.9 74.6002 11 75.7002 11Z" fill="#FBAC47"/>
<path fill-rule="evenodd" clip-rule="evenodd" d="M65.8 55H113.5C115.9 55 117.8 56.9 117.8 59.3V63.9C117.8 66.3 115.9 68.2 113.5 68.2H65.8C63.4 68.2 61.5 66.3 61.5 63.9V59.3C61.5 57 63.5 55 65.8 55Z" fill="white"/>
<path fill-rule="evenodd" clip-rule="evenodd" d="M93.6309 92.725L91.2308 94.025C91.3308 94.025 98.8309 95.225 99.5309 95.325L103.031 87.725L101.331 88.625C101.231 88.425 99.1309 84.925 99.1309 84.825C98.2309 83.325 96.9308 81.625 95.3308 81.125C94.8308 80.925 94.5309 81.025 93.9309 81.025H86.4309C85.9309 81.025 85.4309 81.025 84.9309 81.025C86.9309 81.325 88.2309 83.025 89.1309 84.525L90.0309 86.225C90.3309 86.825 90.6309 87.325 90.9309 87.925C91.2309 88.525 91.5308 89.025 91.8308 89.625C92.2308 90.425 92.7309 91.325 93.1309 92.125C93.2309 92.025 93.5309 92.525 93.6309 92.725Z" fill="white"/>
<path fill-rule="evenodd" clip-rule="evenodd" d="M91.9309 115.925C91.9309 116.025 92.1308 116.225 92.2308 116.325L95.0309 120.125C95.2309 120.425 95.4309 120.725 95.6309 120.925C95.7309 121.125 96.8309 122.525 96.9309 122.625V120.725C97.5309 120.625 99.2309 120.625 99.9309 120.625C102.131 120.525 104.531 120.525 106.331 119.125C106.931 118.725 107.131 117.925 107.531 117.225C108.431 115.525 109.331 113.725 110.331 112.125L111.431 110.025C111.031 110.425 110.831 110.625 110.331 111.025C109.931 111.325 109.431 111.525 108.931 111.625C107.631 112.025 106.631 112.025 105.231 112.025C103.831 112.025 102.531 112.025 101.131 112.025C100.431 112.025 99.7309 112.025 99.1309 112.025C98.5309 112.025 97.7309 112.025 97.0309 112.025V109.325C96.9309 109.425 92.8308 114.825 92.2308 115.625C92.2308 115.625 92.0309 115.825 91.9309 115.925Z" fill="white"/>
<path fill-rule="evenodd" clip-rule="evenodd" d="M68.931 98.7251L70.531 99.7251C70.431 99.9251 70.3309 100.125 70.2309 100.225L69.3309 101.825C68.9309 102.525 68.531 103.225 68.131 103.925C67.731 104.625 67.4309 105.425 67.2309 106.325C67.0309 107.125 66.8309 108.525 67.2309 109.225C67.6309 109.925 68.031 110.625 68.431 111.325C68.831 112.025 69.231 112.725 69.631 113.425L71.431 116.525C71.531 116.725 71.6309 116.825 71.7309 117.025C71.8309 117.225 71.931 117.425 72.031 117.525C71.831 116.725 71.7309 116.325 71.7309 115.425C71.8309 114.725 72.0309 114.025 72.2309 113.425C72.4309 112.825 72.731 112.225 73.031 111.825C73.331 111.325 73.631 110.825 73.931 110.325L77.2309 104.925C77.3309 104.825 77.431 104.725 77.431 104.525C77.531 104.425 77.631 104.225 77.631 104.125L80.031 105.525L76.931 97.7251L68.931 98.7251Z" fill="white"/>
<path fill-rule="evenodd" clip-rule="evenodd" d="M81.9309 120.525L82.1308 111.825L74.6308 111.625L74.1308 112.325C73.1308 113.825 72.4308 115.225 72.8308 117.125C72.9308 117.425 73.0308 117.825 73.1308 118.025C73.3308 118.425 73.6309 118.825 73.9309 119.125C74.7309 119.825 76.0308 120.425 77.0308 120.425C77.5308 120.525 81.7309 120.625 81.9309 120.525Z" fill="white"/>
<path fill-rule="evenodd" clip-rule="evenodd" d="M77.5308 87.825L84.9308 92.325L88.4308 86.625C88.5308 86.425 88.7307 86.2249 88.8307 86.0249C88.9307 85.9249 88.6307 85.425 88.6307 85.325C88.0307 84.025 87.0307 82.525 85.8307 81.925C85.6307 81.825 85.4307 81.725 85.1307 81.625C84.6307 81.425 84.0307 81.325 83.3307 81.425C82.2307 81.625 81.4307 82.225 80.6307 82.825C80.5307 82.925 80.2307 83.225 80.1307 83.325C79.8307 83.725 78.5307 85.9249 78.2307 86.5249L77.5308 87.825Z" fill="white"/>
<path fill-rule="evenodd" clip-rule="evenodd" d="M101.431 104.525L105.231 111.025C106.631 111.225 108.731 111.025 109.831 110.525L110.631 110.025C112.231 108.925 112.331 107.025 111.831 105.225C111.631 104.625 111.231 104.025 110.931 103.525C110.331 102.425 109.631 101.325 109.031 100.225L101.431 104.525Z" fill="white"/>
<path d="M86.5203 97.359C86.5508 97.2553 86.614 97.1643 86.7005 97.0996C86.7871 97.0349 86.8922 96.9999 87.0003 97H91.0003C91.0795 97.0001 91.1575 97.0189 91.228 97.055C91.2984 97.0912 91.3593 97.1435 91.4056 97.2078C91.4519 97.272 91.4823 97.3463 91.4942 97.4246C91.5061 97.5029 91.4993 97.5829 91.4743 97.658L89.6943 103H93.5003C93.5939 103 93.6857 103.026 93.7652 103.076C93.8446 103.125 93.9086 103.196 93.9497 103.28C93.9909 103.364 94.0076 103.458 93.998 103.551C93.9884 103.645 93.9528 103.733 93.8953 103.807L86.8953 112.807C86.8236 112.9 86.7216 112.964 86.6072 112.989C86.4928 113.014 86.3731 112.999 86.2692 112.945C86.1653 112.89 86.0836 112.802 86.0385 112.694C85.9934 112.585 85.9876 112.465 86.0223 112.353L87.8233 106.5H84.5003C84.4226 106.5 84.3459 106.482 84.2764 106.447C84.2068 106.412 84.1464 106.362 84.0998 106.3C84.0532 106.237 84.0217 106.165 84.0079 106.089C83.9941 106.012 83.9984 105.934 84.0203 105.859L86.5203 97.359Z" fill="white"/>
</g>
<defs>
<clipPath id="clip0_23_52">
<rect width="180" height="207" fill="white"/>
</clipPath>
</defs>
</svg>
