<svg width="95" height="95" viewBox="0 0 95 95" fill="none" xmlns="http://www.w3.org/2000/svg">
<rect width="95" height="94.5178" rx="15" fill="#D6C0BD"/>
<g clip-path="url(#clip0_35_187)">
<path d="M62.4295 7.55762C63.5876 7.93136 64.6948 8.24721 65.7482 8.68981C68.7835 9.9652 70.5447 12.2814 71.2218 15.4671C72.0832 19.5205 71.1653 23.3188 69.5994 27.0301C67.958 30.9203 65.5959 34.3306 62.3922 37.0813C59.8945 39.226 57.2744 41.2423 54.6005 43.167C52.5649 44.6322 50.3689 45.8793 48.2169 47.1787C47.9774 47.3233 47.4755 47.3005 47.2361 47.1432C43.7641 44.8625 40.2167 42.6776 36.8909 40.1994C33.7122 37.8307 30.741 35.1443 28.5728 31.784C26.5936 28.7167 25.0346 25.435 24.4111 21.7718C23.9822 19.2514 23.9466 16.7921 24.7327 14.3238C25.7286 11.1971 27.904 9.29405 30.9051 8.21408C31.6082 7.96108 32.3646 7.85492 33.1184 7.61941C34.4344 7.55762 35.7285 7.55762 37.1201 7.61941C38.6034 8.15005 40.0388 8.51067 41.3637 9.1122C43.5451 10.1026 45.1653 11.7598 46.3717 13.8179C47.1236 15.1007 48.3158 15.1223 49.1515 13.8736C49.2519 13.7235 49.3483 13.5705 49.4529 13.4233C50.852 11.4553 52.5146 9.77691 54.7988 8.84907C55.9996 8.36136 57.2458 7.98452 58.4714 7.55762C59.7656 7.55762 61.0597 7.55762 62.4295 7.55762ZM34.0768 16.3819C34.8258 16.3057 35.5006 16.0949 35.5624 15.2065C35.6118 14.4945 35.7034 13.7396 35.5269 13.0686C35.2561 12.0389 34.0698 11.838 33.3179 12.6009C32.3355 13.5976 32.6973 15.6893 34.0768 16.3819ZM34.2033 23.7707C34.8949 23.7871 35.426 23.4165 35.525 22.8069C35.6542 22.0113 35.6418 21.1639 35.5167 20.3657C35.4161 19.7234 34.1386 19.3441 33.6028 19.7101C32.6917 20.3324 32.7387 21.2922 32.8407 22.1959C32.9212 22.91 33.1687 23.6289 34.2033 23.7707ZM36.473 16.8513C35.8774 17.2759 35.714 17.8204 35.9899 18.5026C36.2658 19.185 36.8191 19.3065 37.4716 19.2799C37.9542 19.2602 38.475 19.387 38.9112 19.2441C39.3327 19.1062 39.8369 18.7755 39.9907 18.4017C40.1308 18.0611 39.975 17.4535 39.7282 17.1319C39.1883 16.4284 37.6442 16.3044 36.473 16.8513ZM31.355 16.5472C30.8461 16.5472 30.3365 16.5301 29.8285 16.5514C29.1718 16.5789 28.6031 16.938 28.5105 17.5271C28.4371 17.9942 28.7016 18.9104 28.9519 18.9609C29.9161 19.1555 30.9489 19.1904 31.9276 19.0647C32.4346 18.9996 32.8703 18.3522 32.6208 17.7946C32.4036 17.3092 31.8817 16.9587 31.355 16.5472Z" fill="#393E41"/>
<path d="M49.174 89.7469C49.1135 79.1672 49.1135 68.5875 49.1135 57.8498C49.988 58.5558 50.7572 59.1622 51.5102 59.788C52.906 60.9481 54.2617 62.1593 55.7046 63.2576C56.0548 63.5242 56.7601 63.6367 57.1637 63.476C59.6332 62.4925 62.063 61.4106 64.5056 60.3604C67.6373 59.0138 70.7718 57.6736 73.8988 56.3161C75.771 55.5033 77.6297 54.6597 79.4981 53.838C79.7531 53.7258 80.029 53.6606 80.3675 53.55C80.3675 61.2007 80.3675 68.7537 80.3675 76.3502C70.1473 80.7666 59.8889 85.1995 49.614 89.6897C49.4766 89.7469 49.3555 89.7469 49.174 89.7469Z" fill="#393E41"/>
<path d="M45.7858 89.7469C44.2366 89.0543 42.7606 88.3332 41.2564 87.6758C38.9855 86.6835 36.6931 85.7402 34.4133 84.7679C31.2781 83.4306 28.1421 82.0946 25.014 80.7408C22.761 79.7656 20.5219 78.7586 18.2734 77.773C17.1656 77.2874 16.0507 76.818 14.9415 76.3424C14.9415 68.7817 14.9415 61.2241 14.9415 53.6133C16.7654 54.3895 18.5444 55.1404 20.3182 55.9029C23.5452 57.2902 26.7722 58.6776 29.9935 60.0778C32.6237 61.2211 35.248 62.3776 37.8695 63.5404C38.6211 63.8737 39.2319 63.7967 39.8864 63.2342C41.9133 61.4921 43.9911 59.8085 46.2093 57.9695C46.2093 68.6244 46.2093 79.1104 46.2093 89.6717C46.0883 89.7469 45.9673 89.7469 45.7858 89.7469Z" fill="#393E41"/>
<path d="M39.5773 49.9391C32.0949 46.7224 24.6763 43.5086 17.2592 40.2913C17.2203 40.2744 17.2026 40.2095 17.1271 40.0932C18.2779 39.5726 19.4103 39.0433 20.5567 38.5456C22.4749 37.7128 24.402 36.9003 26.3251 36.0785C26.3491 36.0682 26.3666 36.0435 26.3903 36.0318C27.7836 35.343 27.7121 35.4133 28.8019 36.5134C30.4092 38.1359 32.0411 39.7577 33.8247 41.1784C36.3901 43.2219 39.0625 45.14 41.7644 47.0035C43.4224 48.1471 45.2392 49.0601 46.9474 50.1352C47.6442 50.5737 48.2456 50.4456 48.8475 50.0755C51.2545 48.596 53.7117 47.1856 56.0295 45.5773C58.3672 43.9551 60.6231 42.2007 62.7985 40.3676C64.336 39.072 65.7092 37.5765 67.0946 36.113C67.6184 35.5596 67.998 35.6776 68.6033 35.946C71.7186 37.3274 74.8627 38.6447 77.9958 39.9868C78.058 40.0134 78.1077 40.0692 78.2663 40.1897C76.954 40.7848 75.7253 41.359 74.4826 41.9017C72.5187 42.7594 70.5475 43.6006 68.5758 44.4405C65.5118 45.7458 62.4397 47.0325 59.3807 48.3494C57.1259 49.3202 54.8897 50.3336 52.6394 51.3149C51.0537 52.0064 49.4597 52.6792 47.8645 53.349C47.7478 53.398 47.573 53.3985 47.4572 53.3483C44.8491 52.219 42.2455 51.0794 39.5773 49.9391Z" fill="#393E41"/>
<path d="M32.2821 49.8188C34.4416 50.7735 36.5472 51.6955 38.6577 52.6066C40.7426 53.5065 42.8323 54.3952 45.0152 55.3297C44.2383 56.0059 43.5274 56.6476 42.7918 57.26C41.6021 58.2505 40.3826 59.2059 39.2042 60.2093C38.7715 60.5778 38.4383 60.7522 37.8285 60.4816C34.1463 58.8477 30.4359 57.2768 26.7395 55.6744C22.1426 53.6817 17.5521 51.6745 12.9549 49.6827C11.1786 48.913 9.39116 48.1689 7.60995 47.4106C7.46888 47.3505 7.3367 47.2698 7.12598 47.1599C8.93008 45.6901 10.6873 44.2596 12.4423 42.8265C12.5663 42.7252 12.6872 42.6146 12.7867 42.4902C13.267 41.8904 13.8293 41.7933 14.5324 42.1068C17.6469 43.4955 20.7642 44.878 23.8928 46.2347C26.6636 47.4361 29.4507 48.6006 32.2821 49.8188Z" fill="#393E41"/>
<path d="M51.3282 56.0733C51.0414 55.8416 50.797 55.6505 50.416 55.3526C51.0922 55.024 51.6685 54.7178 52.2653 54.4581C55.108 53.2212 57.9529 51.9892 60.8033 50.77C64.2466 49.2973 67.703 47.8548 71.1409 46.3697C73.8936 45.1806 76.625 43.9428 79.3707 42.7374C79.9365 42.4889 80.5776 42.3716 81.0869 42.0443C81.7005 41.6501 82.0702 41.93 82.4933 42.2886C84.2805 43.8038 86.0709 45.3154 87.8634 46.8246C87.9392 46.8884 88.0469 46.9149 88.2521 47.0119C87.0006 47.5809 85.8369 48.1303 84.6567 48.6423C82.7142 49.4849 80.7605 50.3021 78.8125 51.1324C75.7237 52.449 72.6313 53.7575 69.5488 55.0888C67.2943 56.0625 65.0541 57.0686 62.8063 58.0578C60.9858 58.859 59.1698 59.6711 57.3346 60.4376C57.0935 60.5383 56.6609 60.5058 56.468 60.35C54.7496 58.9617 53.0652 57.5317 51.3282 56.0733Z" fill="#393E41"/>
</g>
<defs>
<clipPath id="clip0_35_187">
<rect width="82.6087" height="82.1894" fill="white" transform="translate(6.19568 7.39697)"/>
</clipPath>
</defs>
</svg>
