<svg width="120" height="139" viewBox="0 0 120 139" fill="none" xmlns="http://www.w3.org/2000/svg">
<path fill-rule="evenodd" clip-rule="evenodd" d="M60 18.261C93.1773 18.261 120 45.1506 120 78.2609C120 111.438 93.1104 138.261 60 138.261C26.8228 138.261 0.000124524 111.371 0.000124524 78.2609C-0.0667651 45.1506 26.8228 18.261 60 18.261Z" fill="#EAEAEA"/>
<path fill-rule="evenodd" clip-rule="evenodd" d="M32.107 95.5183H35.117C36.5886 95.5183 37.8595 96.7223 37.8595 98.2608V111.371C37.8595 112.843 36.6555 114.114 35.117 114.114H32.107C30.6354 114.114 29.3645 112.91 29.3645 111.371V98.2608C29.3645 96.7892 30.5685 95.5183 32.107 95.5183Z" fill="#1D1C1C"/>
<path fill-rule="evenodd" clip-rule="evenodd" d="M84.8831 95.5183H87.8931C89.3647 95.5183 90.6356 96.7223 90.6356 98.2608V111.371C90.6356 112.843 89.4316 114.114 87.8931 114.114H84.8831C83.4115 114.114 82.1406 112.91 82.1406 111.371V98.2608C82.1406 96.7892 83.4115 95.5183 84.8831 95.5183Z" fill="#1D1C1C"/>
<path fill-rule="evenodd" clip-rule="evenodd" d="M29.7659 25.9531H59.9999H90.234L85.3511 107.358C85.2173 109.766 83.3444 111.772 80.9364 111.772H59.9999H39.0635C36.6555 111.772 34.7826 109.766 34.6488 107.358L29.7659 25.9531Z" fill="#D8D8D8"/>
<path fill-rule="evenodd" clip-rule="evenodd" d="M85.4181 106.622L85.3512 107.358C85.2175 109.766 83.3446 111.772 80.9365 111.772H60.0001H39.0636C36.6556 111.772 34.7827 109.766 34.6489 107.358L34.582 106.622H85.4181Z" fill="#ACACAC"/>
<path fill-rule="evenodd" clip-rule="evenodd" d="M29.7659 25.9531H59.9999H90.234L90.1671 27.4916H29.8327L29.7659 25.9531Z" fill="#ACACAC"/>
<path fill-rule="evenodd" clip-rule="evenodd" d="M35.9198 0H84.0134C85.2174 0 86.2207 1.00334 86.2207 2.20735V11.0368C86.2207 12.2408 85.2174 13.2441 84.0134 13.2441H35.9198C34.7157 13.2441 33.7124 12.2408 33.7124 11.0368V2.20735C33.7793 0.936446 34.7826 0 35.9198 0Z" fill="#ACACAC"/>
<path fill-rule="evenodd" clip-rule="evenodd" d="M31.7726 5.75269H88.2274C89.4314 5.75269 90.4347 6.75602 90.4347 7.96003V16.7895C90.4347 17.9935 89.4314 18.9968 88.2274 18.9968H31.7726C30.5686 18.9968 29.5652 17.9935 29.5652 16.7895V7.96003C29.5652 6.68913 30.5686 5.75269 31.7726 5.75269Z" fill="#D8D8D8"/>
<path fill-rule="evenodd" clip-rule="evenodd" d="M26.8897 12.8428H93.0435C94.2475 12.8428 95.2509 13.8461 95.2509 15.0501V23.8796C95.2509 25.0836 94.2475 26.0869 93.0435 26.0869H26.8897C25.6857 26.0869 24.6824 25.0836 24.6824 23.8796V15.0501C24.7493 13.8461 25.6857 12.8428 26.8897 12.8428Z" fill="white"/>
<path fill-rule="evenodd" clip-rule="evenodd" d="M50.5687 7.35791H69.3647C70.1005 7.35791 70.7025 7.95992 70.7025 8.6957V11.9733H49.231V8.6957C49.2978 7.95992 49.833 7.35791 50.5687 7.35791Z" fill="#474747"/>
<path fill-rule="evenodd" clip-rule="evenodd" d="M44.0135 37.7927H75.9198C77.5251 37.7927 78.796 39.0636 78.796 40.669V43.7459C78.796 45.3513 77.5251 46.6222 75.9198 46.6222H44.0135C42.4081 46.6222 41.1372 45.3513 41.1372 43.7459V40.669C41.1372 39.0636 42.4081 37.7927 44.0135 37.7927Z" fill="white"/>
<path d="M45.9443 82.654C45.629 82.7085 45.2366 82.7087 44.7672 82.6546C44.3086 82.585 43.8365 82.4366 43.3507 82.2094C42.8757 81.9667 42.4517 81.6273 42.0786 81.1912C41.7164 80.7396 41.4739 80.1591 41.3513 79.4496L40.2201 72.9067C40.181 72.6023 40.205 72.2328 40.2923 71.7982C40.3926 71.3614 40.5676 70.9252 40.817 70.4897C41.0796 70.0519 41.4258 69.6673 41.8556 69.3359C42.2986 69.0022 42.8551 68.7774 43.5252 68.6616L43.7943 70.2185C43.3476 70.2957 42.9674 70.4832 42.6535 70.7811C42.3374 71.0658 42.1114 71.4025 41.9757 71.7913C41.8377 72.167 41.8027 72.5519 41.8709 72.946L42.9476 79.1737C43.0225 79.6072 43.1781 79.9592 43.4143 80.2296C43.6613 80.4846 43.9322 80.6813 44.2267 80.8198C44.5213 80.9583 44.8002 81.0454 45.0635 81.0811C45.3399 81.1145 45.5438 81.1198 45.6751 81.0971L45.9443 82.654ZM46.8903 82.4905L46.6211 80.9336C46.7919 80.904 46.9865 80.8163 47.2048 80.6703C47.4208 80.5111 47.6224 80.3072 47.8094 80.0583C48.0095 79.8072 48.158 79.5312 48.2548 79.2303C48.3648 78.9272 48.3914 78.6114 48.3346 78.2829L48.0347 76.5486L45.926 76.9132L45.6705 75.4351L49.3755 74.7946L49.9786 78.2828C50.0467 78.677 50.0055 79.1036 49.8548 79.5626C49.7042 80.0217 49.4756 80.4603 49.169 80.8787C48.8756 81.2948 48.5249 81.6531 48.1168 81.9537C47.7195 82.2388 47.3107 82.4178 46.8903 82.4905ZM47.3818 72.4195L47.2769 71.9302C47.1802 71.5275 47.0226 71.2029 46.8041 70.9565C46.5964 70.6947 46.3596 70.4989 46.0936 70.369C45.8384 70.2237 45.5858 70.132 45.3357 70.0941C45.0964 70.0407 44.898 70.0277 44.7403 70.0549L44.4711 68.498C45.0995 68.3759 45.728 68.4499 46.3565 68.7201C46.9828 68.9771 47.5233 69.3641 47.978 69.8808C48.4304 70.3844 48.7111 70.9516 48.8201 71.5822L47.3818 72.4195Z" fill="#393E41"/>
<path d="M52.1296 81.4831L49.7446 67.6878L51.3212 67.4152L53.4371 79.6537L59.2705 78.6451L59.5397 80.202L52.1296 81.4831Z" fill="#393E41"/>
<path d="M67.0398 78.9053L66.1553 76.7241L63.1203 77.2488L63.1896 75.6537L65.4954 75.2551L61.5641 65.6646L63.1407 65.392L68.6165 78.6327L67.0398 78.9053ZM60.4969 80.0365L61.1206 67.913L61.436 67.8585L62.5008 70.4957L62.0538 79.7673L60.4969 80.0365Z" fill="#393E41"/>
<path d="M74.2778 77.7148L74.0223 76.2368C74.2325 76.2004 74.4654 76.0993 74.7208 75.9333C74.9871 75.752 75.2324 75.5269 75.4565 75.2581C75.6784 74.9762 75.8475 74.6628 75.9638 74.3179C76.0932 73.9708 76.1238 73.6002 76.0557 73.206C75.9762 72.7462 75.7855 72.3868 75.4836 72.1277C75.1818 71.8687 74.8178 71.6813 74.3919 71.5655C73.9791 71.4474 73.5534 71.3722 73.1148 71.3398C72.6762 71.3074 72.2673 71.2901 71.888 71.288C71.5196 71.2705 71.2378 71.2448 71.0425 71.2109C70.5686 71.1305 70.1249 70.9907 69.7116 70.7915C69.296 70.5792 68.9391 70.2756 68.6408 69.8806C68.3556 69.4834 68.1596 68.9761 68.0529 68.3585C67.9348 67.6754 67.9662 67.0745 68.1472 66.5561C68.3282 66.0377 68.5842 65.6011 68.9152 65.2461C69.2463 64.8912 69.5975 64.614 69.969 64.4145C70.3381 64.2018 70.6541 64.0727 70.9169 64.0273L71.1758 65.5251C71.0467 65.5609 70.8784 65.6442 70.671 65.7748C70.4612 65.8922 70.2606 66.0622 70.0691 66.2848C69.8906 66.505 69.7476 66.7733 69.6399 67.0896C69.5431 67.3905 69.5287 67.738 69.5969 68.1322C69.6628 68.5132 69.8158 68.8115 70.0561 69.0271C70.3094 69.2403 70.614 69.3974 70.9697 69.4983C71.3254 69.5992 71.7106 69.6747 72.1252 69.7248C72.5529 69.7726 72.9718 69.8084 73.3818 69.8322C73.805 69.8538 74.1845 69.8964 74.5203 69.9602C74.9965 70.0537 75.449 70.2055 75.8777 70.4156C76.3041 70.6125 76.6731 70.9072 76.9846 71.2999C77.296 71.6926 77.5096 72.224 77.6255 72.894C77.7482 73.6035 77.6801 74.3054 77.4212 74.9996C77.1601 75.6807 76.7549 76.2717 76.2055 76.7726C75.6561 77.2736 75.0136 77.5876 74.2778 77.7148ZM73.3122 77.8818C72.7604 77.9772 72.2418 77.9518 71.7565 77.8057C71.2711 77.6596 70.8347 77.4441 70.4472 77.1593C70.0728 76.8722 69.763 76.5672 69.5177 76.2443C69.2856 75.9191 69.1457 75.6185 69.098 75.3426L70.448 74.5815C70.6087 75.0408 70.841 75.4066 71.1452 75.6787C71.4493 75.9509 71.7738 76.1451 72.1187 76.2614C72.4613 76.3646 72.7739 76.412 73.0566 76.4037L73.3122 77.8818ZM74.4951 66.8794C74.3435 66.4726 74.1268 66.1583 73.8449 65.9364C73.5607 65.7014 73.2627 65.5432 72.951 65.4617C72.6501 65.3649 72.3803 65.3304 72.1415 65.3581L71.8825 63.8604C72.4212 63.7672 72.9189 63.7894 73.3757 63.927C73.8325 64.0645 74.2404 64.2714 74.5993 64.5476C74.956 64.8106 75.2416 65.0928 75.4561 65.394C75.6814 65.6798 75.8265 65.9321 75.8914 66.1509L74.4951 66.8794Z" fill="#393E41"/>
</svg>
