<svg width="181" height="207" viewBox="0 0 181 207" fill="none" xmlns="http://www.w3.org/2000/svg">
<path fill-rule="evenodd" clip-rule="evenodd" d="M90.6 27.6001C140.2 27.6001 180.3 67.8001 180.3 117.3C180.3 166.9 140.1 207 90.6 207C41 207 0.900089 166.8 0.900089 117.3C0.800089 67.8001 41 27.6001 90.6 27.6001Z" fill="#60BC53"/>
<path fill-rule="evenodd" clip-rule="evenodd" d="M48.9001 143.1H53.4001C55.6001 143.1 57.5001 144.9 57.5001 147.2V166.8C57.5001 169 55.7001 170.9 53.4001 170.9H48.9001C46.7001 170.9 44.8 169.1 44.8 166.8V147.2C44.8 145 46.6001 143.1 48.9001 143.1Z" fill="#1D1C1C"/>
<path fill-rule="evenodd" clip-rule="evenodd" d="M127.8 143.1H132.3C134.5 143.1 136.4 144.9 136.4 147.2V166.8C136.4 169 134.6 170.9 132.3 170.9H127.8C125.6 170.9 123.7 169.1 123.7 166.8V147.2C123.7 145 125.6 143.1 127.8 143.1Z" fill="#1D1C1C"/>
<path fill-rule="evenodd" clip-rule="evenodd" d="M45.4001 39.1001H90.6001H135.8L128.5 160.8C128.3 164.4 125.5 167.4 121.9 167.4H90.6001H59.3001C55.7001 167.4 52.9001 164.4 52.7001 160.8L45.4001 39.1001Z" fill="#48AB48"/>
<path fill-rule="evenodd" clip-rule="evenodd" d="M128.6 159.7L128.5 160.8C128.3 164.4 125.5 167.4 121.9 167.4H90.6001H59.3001C55.7001 167.4 52.9001 164.4 52.7001 160.8L52.6001 159.7H128.6Z" fill="#468F46"/>
<path fill-rule="evenodd" clip-rule="evenodd" d="M45.4001 39.1001H90.6001H135.8L135.7 41.4001H45.5001L45.4001 39.1001Z" fill="#3D733F"/>
<path fill-rule="evenodd" clip-rule="evenodd" d="M54.6 0.300049H126.5C128.3 0.300049 129.8 1.80004 129.8 3.60004V16.8C129.8 18.6 128.3 20.1 126.5 20.1H54.6C52.8 20.1 51.3 18.6 51.3 16.8V3.60004C51.4 1.70004 52.9 0.300049 54.6 0.300049Z" fill="#468F46"/>
<path fill-rule="evenodd" clip-rule="evenodd" d="M48.4001 8.90015H132.8C134.6 8.90015 136.1 10.4001 136.1 12.2001V25.4001C136.1 27.2001 134.6 28.7001 132.8 28.7001H48.4001C46.6001 28.7001 45.1001 27.2001 45.1001 25.4001V12.2001C45.1001 10.3001 46.6001 8.90015 48.4001 8.90015Z" fill="#4DAC48"/>
<path fill-rule="evenodd" clip-rule="evenodd" d="M41.1 19.5H140C141.8 19.5 143.3 21 143.3 22.8V36C143.3 37.8 141.8 39.3 140 39.3H41.1C39.3 39.3 37.8 37.8 37.8 36V22.8C37.9 21 39.3 19.5 41.1 19.5Z" fill="#60BC53"/>
<path fill-rule="evenodd" clip-rule="evenodd" d="M94.7 96.3001L92.3 97.6001C92.4 97.6001 99.9 98.8001 100.6 98.9001L104.1 91.3001L102.4 92.2001C102.3 92.0001 100.2 88.5001 100.2 88.4001C99.3 86.9001 98 85.2001 96.4 84.7001C95.9 84.5001 95.6 84.6001 95 84.6001H87.5C87 84.6001 86.5 84.6001 86 84.6001C88 84.9001 89.3 86.6001 90.2 88.1001L91.1 89.8001C91.4 90.4001 91.7 90.9001 92 91.5001C92.3 92.1001 92.6 92.6001 92.9 93.2001C93.3 94.0001 93.8 94.9001 94.2 95.7001C94.3 95.6001 94.6 96.1001 94.7 96.3001Z" fill="white"/>
<path fill-rule="evenodd" clip-rule="evenodd" d="M90 115.5C90 115.6 90.2 115.8 90.3 115.9L93.1 119.7C93.3 120 93.5 120.3 93.7 120.5C93.8 120.7 94.9 122.1 95 122.2V120.3C95.6 120.2 97.3 120.2 98 120.2C100.2 120.1 102.6 120.1 104.4 118.7C105 118.3 105.2 117.5 105.6 116.8C106.5 115.1 107.4 113.3 108.4 111.7L109.5 109.6C109.1 110 108.9 110.2 108.4 110.6C108 110.9 107.5 111.1 107 111.2C105.7 111.6 104.7 111.6 103.3 111.6C101.9 111.6 100.6 111.6 99.2 111.6C98.5 111.6 97.8 111.6 97.2 111.6C96.6 111.6 95.8 111.6 95.1 111.6V108.9C95 109 90.9 114.4 90.3 115.2C90.3 115.2 90.1 115.4 90 115.5Z" fill="white"/>
<path fill-rule="evenodd" clip-rule="evenodd" d="M73 98.3L74.6 99.3C74.5 99.5 74.4 99.7 74.3 99.8L73.4001 101.4C73.0001 102.1 72.6001 102.8 72.2001 103.5C71.8001 104.2 71.5 105 71.3 105.9C71.1 106.7 70.9 108.1 71.3 108.8C71.7 109.5 72.1 110.2 72.5 110.9C72.9 111.6 73.3001 112.3 73.7001 113L75.5 116.1C75.6 116.3 75.7 116.4 75.8 116.6C75.9 116.8 76 117 76.1 117.1C75.9 116.3 75.8 115.9 75.8 115C75.9 114.3 76.1 113.6 76.3 113C76.5 112.4 76.8 111.8 77.1 111.4C77.4 110.9 77.7 110.4 78 109.9L81.3 104.5C81.4 104.4 81.5 104.3 81.5 104.1C81.6 104 81.7001 103.8 81.7001 103.7L84.1 105.1L81 97.3L73 98.3Z" fill="white"/>
<path fill-rule="evenodd" clip-rule="evenodd" d="M86.0001 120.1L86.2001 111.4L78.7001 111.2L78.2001 111.9C77.2001 113.4 76.5001 114.8 76.9001 116.7C77.0001 117 77.1001 117.4 77.2001 117.6C77.4001 118 77.7001 118.4 78.0001 118.7C78.8001 119.4 80.1 120 81.1 120C81.6 120.1 85.8001 120.2 86.0001 120.1Z" fill="white"/>
<path fill-rule="evenodd" clip-rule="evenodd" d="M78.6001 91.4001L86.0001 95.9001L89.5001 90.2001C89.6001 90.0001 89.8001 89.8 89.9001 89.6C90.0001 89.5 89.7001 89.0001 89.7001 88.9001C89.1001 87.6001 88.1001 86.1 86.9001 85.5C86.7001 85.4 86.5001 85.3001 86.2001 85.2001C85.7001 85.0001 85.1001 84.9 84.4001 85C83.3001 85.2 82.5001 85.8001 81.7001 86.4001C81.6001 86.5001 81.3001 86.8001 81.2001 86.9001C80.9001 87.3001 79.6001 89.5 79.3001 90.1L78.6001 91.4001Z" fill="white"/>
<path fill-rule="evenodd" clip-rule="evenodd" d="M99.5 104.1L103.3 110.6C104.7 110.8 106.8 110.6 107.9 110.1L108.7 109.6C110.3 108.5 110.4 106.6 109.9 104.8C109.7 104.2 109.3 103.6 109 103.1C108.4 102 107.7 100.9 107.1 99.8L99.5 104.1Z" fill="white"/>
<path fill-rule="evenodd" clip-rule="evenodd" d="M76.5 11.3H104.6C105.7 11.3 106.6 12.2 106.6 13.3V18.2001H74.5V13.3C74.6 12.2 75.4 11.3 76.5 11.3Z" fill="#3D733F"/>
<path fill-rule="evenodd" clip-rule="evenodd" d="M66.7001 56.8H114.4C116.8 56.8 118.7 58.7 118.7 61.1V65.7001C118.7 68.1001 116.8 70.0001 114.4 70.0001H66.7001C64.3001 70.0001 62.4001 68.1001 62.4001 65.7001V61.1C62.4001 58.7 64.3001 56.8 66.7001 56.8Z" fill="white"/>
</svg>
