<svg width="180" height="207" viewBox="0 0 180 207" fill="none" xmlns="http://www.w3.org/2000/svg">
<path fill-rule="evenodd" clip-rule="evenodd" d="M89.7 27.6C139.3 27.6 179.4 67.8 179.4 117.3C179.4 166.9 139.2 207 89.7 207C40.1 207 0 166.8 0 117.3C0 67.8 40.1 27.6 89.7 27.6Z" fill="#00C1E8"/>
<path fill-rule="evenodd" clip-rule="evenodd" d="M47.9999 143.1H52.4999C54.6999 143.1 56.5999 144.9 56.5999 147.2V166.8C56.5999 169 54.7999 170.9 52.4999 170.9H47.9999C45.7999 170.9 43.8999 169.1 43.8999 166.8V147.2C43.8999 145 45.7999 143.1 47.9999 143.1Z" fill="#1D1C1C"/>
<path fill-rule="evenodd" clip-rule="evenodd" d="M126.9 143.1H131.4C133.6 143.1 135.5 144.9 135.5 147.2V166.8C135.5 169 133.7 170.9 131.4 170.9H126.9C124.7 170.9 122.8 169.1 122.8 166.8V147.2C122.9 145 124.7 143.1 126.9 143.1Z" fill="#1D1C1C"/>
<path fill-rule="evenodd" clip-rule="evenodd" d="M44.5 39.1H89.7H134.9L127.6 160.8C127.4 164.4 124.6 167.4 121 167.4H89.7H58.4C54.8 167.4 52 164.4 51.8 160.8L44.5 39.1Z" fill="#159DCF"/>
<path fill-rule="evenodd" clip-rule="evenodd" d="M127.7 159.7L127.6 160.8C127.4 164.4 124.6 167.4 121 167.4H89.7H58.4C54.8 167.4 52 164.4 51.8 160.8L51.7 159.7H127.7Z" fill="#2486B0"/>
<path fill-rule="evenodd" clip-rule="evenodd" d="M44.5 39.1H89.7H134.9L134.8 41.4H44.6L44.5 39.1Z" fill="#24597B"/>
<path fill-rule="evenodd" clip-rule="evenodd" d="M53.8 0.300049H125.7C127.5 0.300049 129 1.80004 129 3.60004V16.8C129 18.6 127.5 20.1 125.7 20.1H53.8C52 20.1 50.5 18.6 50.5 16.8V3.60004C50.5 1.70004 52 0.300049 53.8 0.300049Z" fill="#2988AA"/>
<path fill-rule="evenodd" clip-rule="evenodd" d="M47.4999 8.90002H131.9C133.7 8.90002 135.2 10.4 135.2 12.2V25.4C135.2 27.2 133.7 28.7 131.9 28.7H47.4999C45.6999 28.7 44.2 27.2 44.2 25.4V12.2C44.3 10.3 45.6999 8.90002 47.4999 8.90002Z" fill="#1EA3C8"/>
<path fill-rule="evenodd" clip-rule="evenodd" d="M40.3 19.5H139.2C141 19.5 142.5 21 142.5 22.8V36C142.5 37.8 141 39.3 139.2 39.3H40.3C38.5 39.3 37 37.8 37 36V22.8C37 21 38.5 19.5 40.3 19.5Z" fill="#00C1E8"/>
<path fill-rule="evenodd" clip-rule="evenodd" d="M93.7999 96.2999L91.3998 97.5999C91.4998 97.5999 98.9998 98.8 99.6998 98.9L103.2 91.2999L101.5 92.2C101.4 92 99.2999 88.5 99.2999 88.4C98.3999 86.9 97.0998 85.2 95.4998 84.7C94.9998 84.5 94.6999 84.5999 94.0999 84.5999H86.5999C86.0999 84.5999 85.5999 84.5999 85.0999 84.5999C87.0999 84.8999 88.3999 86.5999 89.2999 88.0999L90.1998 89.7999C90.4998 90.3999 90.7999 90.9 91.0999 91.5C91.3999 92.1 91.6998 92.6 91.9998 93.2C92.3998 94 92.8999 94.9 93.2999 95.7C93.4999 95.6 93.7999 96.0999 93.7999 96.2999Z" fill="white"/>
<path fill-rule="evenodd" clip-rule="evenodd" d="M89.2 115.5C89.2 115.6 89.3999 115.8 89.4999 115.9L92.3 119.7C92.5 120 92.7 120.3 92.9 120.5C93 120.7 94.1 122.1 94.2 122.2V120.3C94.8 120.2 96.5 120.2 97.2 120.2C99.4 120.1 101.8 120.1 103.6 118.7C104.2 118.3 104.4 117.5 104.8 116.8C105.7 115.1 106.6 113.3 107.6 111.7L108.7 109.6C108.3 110 108.1 110.2 107.6 110.6C107.2 110.9 106.7 111.1 106.2 111.2C104.9 111.6 103.9 111.6 102.5 111.6C101.1 111.6 99.8 111.6 98.4 111.6C97.7 111.6 97 111.6 96.4 111.6C95.8 111.6 95 111.6 94.3 111.6V108.9C94.2 109 90.0999 114.4 89.4999 115.2C89.3999 115.2 89.2 115.4 89.2 115.5Z" fill="white"/>
<path fill-rule="evenodd" clip-rule="evenodd" d="M72.0999 98.3L73.6999 99.3C73.5999 99.5 73.4999 99.7 73.3999 99.8L72.4999 101.4C72.0999 102.1 71.6999 102.8 71.2999 103.5C70.8999 104.2 70.5999 105 70.3999 105.9C70.1999 106.7 69.9999 108.1 70.3999 108.8C70.7999 109.5 71.1999 110.2 71.5999 110.9C71.9999 111.6 72.3999 112.3 72.7999 113L74.5999 116.1C74.6999 116.3 74.7999 116.4 74.8999 116.6C74.9999 116.8 75.0999 117 75.1999 117.1C74.9999 116.3 74.8999 115.9 74.8999 115C74.9999 114.3 75.1999 113.6 75.3999 113C75.5999 112.4 75.8999 111.8 76.1999 111.4C76.4999 110.9 76.7999 110.4 77.0999 109.9L80.3999 104.5C80.4999 104.4 80.5999 104.3 80.5999 104.1C80.6999 104 80.7999 103.8 80.7999 103.7L83.1999 105.1L80.0999 97.3L72.0999 98.3Z" fill="white"/>
<path fill-rule="evenodd" clip-rule="evenodd" d="M85.1 120.1L85.3 111.4L77.8 111.2L77.3 111.9C76.3 113.4 75.5999 114.8 75.9999 116.7C76.0999 117 76.2 117.4 76.3 117.6C76.5 118 76.8 118.4 77.1 118.7C77.9 119.4 79.2 120 80.2 120C80.7 120.1 85 120.2 85.1 120.1Z" fill="white"/>
<path fill-rule="evenodd" clip-rule="evenodd" d="M77.7998 91.3999L85.1998 95.8999L88.6998 90.1999C88.7998 89.9999 88.9998 89.7999 89.0998 89.5999C89.1998 89.4999 88.8998 88.9999 88.8998 88.8999C88.2998 87.5999 87.2998 86.0999 86.0998 85.4999C85.8998 85.3999 85.6998 85.2999 85.3998 85.1999C84.8998 84.9999 84.2998 84.8999 83.5998 84.9999C82.4998 85.1999 81.6998 85.7999 80.8998 86.3999C80.7998 86.4999 80.4998 86.7999 80.3998 86.8999C80.0998 87.2999 78.7998 89.4999 78.4998 90.0999L77.7998 91.3999Z" fill="white"/>
<path fill-rule="evenodd" clip-rule="evenodd" d="M98.5999 104.1L102.4 110.6C103.8 110.8 105.9 110.6 107 110.1L107.8 109.6C109.4 108.5 109.5 106.6 109 104.8C108.8 104.2 108.4 103.6 108.1 103.1C107.5 102 106.8 100.9 106.2 99.8L98.5999 104.1Z" fill="white"/>
<path fill-rule="evenodd" clip-rule="evenodd" d="M75.7 11.3H103.8C104.9 11.3 105.8 12.2 105.8 13.3V18.2001H73.7V13.3C73.7 12.2 74.6 11.3 75.7 11.3Z" fill="#24597B"/>
<path fill-rule="evenodd" clip-rule="evenodd" d="M65.8 55.3H113.5C115.9 55.3 117.8 57.2 117.8 59.6V64.2001C117.8 66.6001 115.9 68.5001 113.5 68.5001H65.8C63.4 68.5001 61.5 66.6001 61.5 64.2001V59.6C61.5 57.3 63.5 55.3 65.8 55.3Z" fill="white"/>
</svg>
