<svg width="284" height="306" viewBox="0 0 284 306" fill="none" xmlns="http://www.w3.org/2000/svg">
<g clip-path="url(#clip0_19_13)">
<path fill-rule="evenodd" clip-rule="evenodd" d="M142.008 0C219.66 0 282.439 62.9353 282.439 140.43C282.439 218.082 219.503 280.861 142.008 280.861C64.3568 280.861 1.57817 217.925 1.57817 140.43C1.42162 62.9353 64.3568 0 142.008 0Z" fill="#B8D0C2"/>
<path d="M70.7257 108.704L68.6223 110.31L75.8813 122.262L80.3523 118.851L70.7257 108.704Z" fill="#393E41"/>
<path d="M111.252 136.186C111.259 136.18 111.269 136.178 111.275 136.174C111.282 136.168 111.292 136.163 111.298 136.157C111.284 136.168 111.265 136.176 111.252 136.186Z" fill="#393E41"/>
<path d="M129.18 162.651L129.176 159.525L123.598 151.912L123.612 162.658L129.18 162.651Z" fill="#393E41"/>
<path d="M136.083 149.93L156.632 134.883C155.207 132.239 153.923 129.764 152.727 127.355L152.067 126.03L153.262 125.156L159.597 120.516L161.289 119.276L162.212 121.158C166.66 130.236 171.612 138.993 177.04 147.413L176.972 91.6395L131.319 91.6936L131.381 143.51L136.083 149.93Z" fill="#393E41"/>
<path d="M165.371 149.967C163.663 147.23 162.005 144.457 160.418 141.693L140.651 156.168L145.39 162.635L148.076 162.631L165.371 149.967Z" fill="#393E41"/>
<path d="M167.134 162.609L173.763 162.6C173.014 161.536 172.248 160.479 171.514 159.401L167.134 162.609Z" fill="#393E41"/>
<path d="M131.406 162.572V162.652H131.465L131.406 162.572Z" fill="#393E41"/>
<path d="M235.245 205.507L231.329 205.513L231.317 194.784C231.991 194.865 232.671 194.913 233.364 194.911C242.589 194.898 250.056 187.412 250.046 178.193C250.033 168.97 242.55 161.503 233.324 161.516C224.954 161.526 218.028 167.694 216.83 175.725C216.551 176.509 216.389 177.353 216.391 178.233H216.387L216.42 205.528L214.185 205.53L214.152 178.235C214.152 177.206 214.319 176.18 214.649 175.186C215.205 171.733 216.711 168.608 218.867 166.06C217.82 165.505 216.63 165.189 215.361 165.191L47.9337 165.393C46.6667 165.395 45.4766 165.713 44.4301 166.273C46.5918 168.817 48.1064 171.935 48.6723 175.385C49.0073 176.377 49.1737 177.405 49.1737 178.439L49.2299 225.099L156.493 224.97L196.803 224.922L196.805 227.158L46.9971 227.339L46.9389 178.443C46.9389 177.559 46.7745 176.717 46.4936 175.93C45.2723 167.901 38.334 161.755 29.9618 161.763C20.7369 161.776 13.2718 169.258 13.2825 178.483C13.295 187.703 20.7785 195.171 30.0039 195.16C30.6988 195.16 31.3791 195.11 32.0512 195.029L32.0969 234.808C32.099 236.774 32.8979 238.692 34.2877 240.079C35.6775 241.465 37.5999 242.259 39.5618 242.255L156.519 242.113L196.829 242.066L196.831 244.302L196.837 248.287L200.147 249.435L200.097 208.86L268.256 208.776L268.312 254.648L215.346 254.711L220.637 256.547L267.434 256.491L270.857 257.951H271.629L271.566 205.465L269.746 205.467L269.741 203.001L259.484 203.013L259.489 205.48L240.824 205.503L240.812 195.617C239.074 196.363 237.202 196.85 235.246 197.046L235.245 205.507ZM55.0138 222.411C53.366 222.413 52.0303 221.08 52.0261 219.43L52.0074 204.523C52.0053 202.875 53.3389 201.54 54.9867 201.536L127.31 201.448C128.956 201.446 130.296 202.78 130.298 204.427L130.315 219.335C130.317 220.984 128.981 222.32 127.335 222.322L55.0138 222.411ZM208.854 205.54L208.85 203.073L198.593 203.085L198.597 205.552L196.778 205.554L196.797 222.24L136.095 222.313C134.447 222.315 133.11 220.982 133.108 219.332L133.089 204.425C133.087 202.777 134.42 201.442 136.068 201.438L208.392 201.35C210.042 201.348 211.379 202.682 211.379 204.329L211.382 205.533L208.854 205.54Z" fill="#393E41"/>
<path d="M215.362 162.55C217.351 162.548 219.203 163.131 220.769 164.125C224.059 161.196 228.345 159.397 232.965 159.301L232.882 91.5784L187.229 91.6345L187.316 162.19C187.416 162.323 187.518 162.454 187.618 162.588L215.362 162.55ZM194.168 149.974C195.909 149.972 197.324 151.385 197.328 153.126C197.33 154.867 195.918 156.281 194.176 156.283C192.435 156.285 191.02 154.875 191.018 153.132C191.016 151.391 192.427 149.976 194.168 149.974Z" fill="#393E41"/>
<path d="M34.3429 160.063L37.5573 157.936C37.5927 158.166 37.6343 158.391 37.6946 158.605C38.0608 160.026 38.7599 161.147 39.4672 162.112C40.5595 162.751 41.5789 163.502 42.5277 164.34C44.0902 163.342 45.9419 162.753 47.9311 162.751L111.424 162.674L96.367 142.967C95.8656 142.31 95.2331 141.813 94.5382 141.474C95.4744 140.486 95.955 139.19 95.9405 137.884C100.345 143.647 104.714 149.365 104.722 149.376C108.604 154.451 115.861 155.422 120.942 151.547C121.466 151.146 121.938 150.701 122.359 150.222L122.236 150.054L121.198 148.637L122.615 147.597L128.852 143.032L129.154 142.809L129.089 89.4744L179.194 89.414L179.269 150.811C181.152 153.631 183.093 156.411 185.087 159.152L185.001 89.4055L235.106 89.3452L235.192 159.374C237.152 159.563 239.022 160.054 240.761 160.796L240.672 87.0352L245.682 87.0289L245.671 80.5101L117.625 80.6661L117.634 87.1828L123.52 87.1766L123.582 139.122C123.345 138.687 123.085 138.261 122.773 137.855C120.029 134.265 114.942 133.535 111.299 136.156C111.432 136.071 111.461 136.054 111.276 136.173C111.218 136.214 111.157 136.25 111.099 136.293C107.949 138.702 107.348 143.199 109.753 146.353C110.854 147.794 112.46 148.624 114.135 148.782C112.129 148.847 110.119 147.975 108.804 146.261C108.804 146.261 92.2974 124.653 91.1054 123.095C90.0734 121.766 88.6961 120.221 86.4492 119.57C85.3423 119.253 84.069 119.249 82.8374 119.59C81.5974 119.929 80.3949 120.576 79.1757 121.506C75.8551 124.042 64.5059 132.711 54.921 140.029L53.8204 138.367L52.5221 139.226L38.2747 117.718L32.1539 121.77L37.3115 129.558L14.5465 144.63C12.4723 142.261 10.3647 139.921 8.19885 137.629L1.98218 141.745C8.29046 148.362 14.2094 155.315 19.7267 162.567C22.679 160.658 26.1847 159.532 29.9567 159.528C31.4588 159.528 32.9256 159.724 34.3424 160.063L34.3429 160.063ZM113.83 143.234C113.15 142.339 113.323 141.058 114.215 140.372C115.619 139.305 117.619 139.573 118.69 140.971C119.595 142.161 119.841 143.648 119.481 144.987C119.406 144.611 119.246 144.247 119 143.922C118.137 142.797 116.529 142.579 115.401 143.44C114.91 143.818 114.205 143.725 113.83 143.234L113.83 143.234ZM17.1768 147.689L39.5172 132.898L46.3954 143.282L41.7766 146.34L33.2319 137.333L31.1285 138.939L37.3889 149.245L25.0264 157.43C22.4923 154.121 19.875 150.874 17.1767 147.689L17.1768 147.689Z" fill="#393E41"/>
<path d="M133.638 162.646L143.211 162.634L138.192 155.784L160.962 139.108C163.123 142.936 165.379 146.707 167.721 150.418L151.05 162.626L164.155 162.609L171.944 156.905C173.234 158.821 174.555 160.714 175.893 162.595L185.43 162.582C175.953 149.846 167.646 136.242 160.63 121.931L154.295 126.57C155.774 129.544 157.316 132.48 158.899 135.391L135.699 152.381L129.886 144.444L123.649 149.011L133.638 162.646Z" fill="#393E41"/>
<path d="M38.8914 244.315V244.456L38.8976 248.007L47.8977 247.995L47.8956 244.479L47.8935 244.302L38.8914 244.315Z" fill="#393E41"/>
<path d="M127.247 244.208V244.385L127.251 247.901L136.251 247.89L136.249 244.373V244.198L127.247 244.208Z" fill="#393E41"/>
<path d="M266.323 252.664L266.3 232.704L202.109 232.781L202.13 250.12L209.649 252.731L266.323 252.664ZM234.222 249.863C232.577 249.865 231.243 248.531 231.241 246.888C231.239 245.243 232.57 243.907 234.216 243.907C235.86 243.905 237.195 245.237 237.197 246.882C237.197 248.525 235.866 249.861 234.222 249.863Z" fill="#393E41"/>
<path d="M266.296 230.72L266.273 210.76L202.083 210.837L202.106 230.797L266.296 230.72ZM231.212 224.395C231.21 222.752 232.542 221.416 234.188 221.414C235.831 221.412 237.167 222.745 237.169 224.389C237.171 226.034 235.84 227.369 234.196 227.369C232.548 227.369 231.215 226.038 231.212 224.395Z" fill="#393E41"/>
<path d="M266.893 259.14L220.189 259.196L180.861 245.54L149.595 250.817L85.6063 254.257L57.5275 250.942L15.5884 254.911L20.4256 261.995L62.8121 268.121L87.6452 266.85L101.194 263.799L158.439 260.594L189.408 268.902L192.346 272.839L197.649 274.235L259.661 271.038L282.605 265.846L266.893 259.14Z" fill="#393E41"/>
<path d="M187.837 271.217L158.158 263.254L101.552 266.424L60.3594 275.701L106.759 280.203L137.501 280.797L193.133 278.312L187.837 271.217Z" fill="#393E41"/>
<path d="M50.0444 290.062L54.7381 284.181L48.8585 279.491L41.8099 281.261L39.4673 288.312L50.0444 290.062Z" fill="#393E41"/>
<path d="M221.306 289.854L215.427 285.163L208.378 286.934L206.036 293.985L216.613 295.734L221.306 289.854Z" fill="#393E41"/>
<path d="M159.092 285.525L152.655 287.734L150.518 296.547L160.182 298.737L164.466 291.391L159.092 285.525Z" fill="#393E41"/>
<path d="M119.822 286.744L115.961 288.069L114.679 293.357L120.476 294.671L123.047 290.264L119.822 286.744Z" fill="#393E41"/>
<path d="M138.309 295.616L134.231 295.37L131.031 299.769L135.89 303.195L139.949 300.098L138.309 295.616Z" fill="#393E41"/>
<path d="M10.5138 269.971L6.49625 265.147L1.6861 266.963L0.090332 274.21L7.31205 276.011L10.5138 269.971Z" fill="#393E41"/>
<path d="M263.191 279.848L259.987 276.002L256.153 277.45L254.882 283.229L260.639 284.664L263.191 279.848Z" fill="#393E41"/>
<path d="M276.714 272.729L275.443 278.505L281.2 279.943L283.753 275.125L280.549 271.281L276.714 272.729Z" fill="#393E41"/>
<path d="M22.4283 281.867L18.8997 279.816L13.0266 282.759L13.0329 286.871L19.2016 285.983L21.8438 285.099L22.4283 281.867Z" fill="#393E41"/>
<path d="M32.3989 270.402L32.4052 274.512L38.5718 273.624L41.214 272.74L41.8007 269.51L38.2722 267.457L32.3989 270.402Z" fill="#393E41"/>
<path d="M86.7095 291.776L68.761 292.56L67.2422 298.289L76.0303 301.334L83.2808 298.651L91.3052 303.223L97.0308 300.161L98.5516 294.815L89.387 295.208L86.7095 291.776Z" fill="#393E41"/>
<path d="M200.471 303.39L201.053 300.158L197.525 298.107L191.654 301.052L191.66 305.162L197.829 304.274L200.471 303.39Z" fill="#393E41"/>
<path d="M172.407 295.2L172.413 299.31L178.584 302.83L181.222 297.54L181.807 294.308L178.278 292.257L172.407 295.2Z" fill="#393E41"/>
<path d="M247.245 294.625L243.548 292.616L234.822 293.633L228.778 292.969L227.775 297.67L234.495 301.019L242.218 302.016L247.249 299.326L251.613 299.32L255.304 296.965L254.628 293.273L247.245 294.625Z" fill="#393E41"/>
</g>
<defs>
<clipPath id="clip0_19_13">
<rect width="284" height="306" fill="white"/>
</clipPath>
</defs>
</svg>
