<svg width="95" height="96" viewBox="0 0 95 96" fill="none" xmlns="http://www.w3.org/2000/svg">
<rect width="95" height="95.3265" rx="15" fill="#BFCDE0"/>
<path d="M34.4417 50.3599C37.931 52.4953 42.0686 53.208 47.4993 53.208C52.93 53.208 57.2983 52.1385 60.5569 50.3616C62.0041 49.5721 64.1896 46.5734 66.3259 42.695C75.1524 42.2922 80.5124 37.1624 80.634 32.1235C80.7103 28.9834 78.6616 25.3022 72.8819 24.2482C72.9405 23.6452 72.9761 23.0619 72.9761 22.5074C72.9761 19.8783 72.9761 12.8926 47.4989 12.8926C22.0216 12.8926 22.0216 19.8783 22.0216 22.5081C22.0224 31.5786 30.7944 48.1276 34.4427 50.3604L34.4417 50.3599ZM70.2895 23.9718L70.1375 27.7686L70.2895 23.9718ZM72.2136 28.6178H72.2152C75.152 28.6178 76.8937 30.3179 76.8454 32.339C76.7868 34.735 74.0258 38.1902 68.3675 39.1151C69.9778 35.657 71.3919 32.0247 72.2133 28.6181L72.2136 28.6178ZM27.7076 22.5088C27.7076 20.3488 36.568 18.5978 47.4995 18.5978C58.431 18.5978 67.2914 20.3489 67.2914 22.5088C67.2914 24.6686 58.431 26.4196 47.4995 26.4196C36.568 26.4196 27.7076 24.6686 27.7076 22.5088V22.5088Z" fill="#393E41"/>
<path d="M88.9263 60.3155C88.5138 60.1453 88.0706 60.1536 87.6846 60.302L87.0649 60.5548L84.9405 61.4107C83.6019 61.9499 82.0223 61.9344 80.5619 61.3272C79.113 60.7234 78.0954 59.554 77.5326 58.2202C76.9902 56.8781 76.8792 55.3158 77.4809 53.8603C78.086 52.3945 79.1928 51.2645 80.5151 50.6945L82.6227 49.7926L83.2397 49.5312C83.6149 49.3618 83.9373 49.0568 84.1073 48.6412C84.451 47.8092 84.07 46.8586 83.2543 46.5215L83.1286 46.4677C80.6527 45.6041 77.8893 45.6706 75.269 46.7904C71.4664 48.4231 68.9548 51.9185 68.3888 55.792L62.3803 58.2841L47.4992 64.4702L32.6188 58.2836L26.6103 55.7914C26.0442 51.9181 23.5327 48.4229 19.7301 46.7898C17.11 45.6706 14.3463 45.6035 11.8705 46.4671L11.7448 46.5209C10.9292 46.8583 10.5479 47.8095 10.8918 48.6407C11.0615 49.0563 11.3842 49.3612 11.7594 49.5306L12.3764 49.7921L14.484 50.6939C15.8071 51.2636 16.9131 52.394 17.5182 53.8597C18.1199 55.3152 18.0089 56.8772 17.4665 58.2196C16.9037 59.5535 15.8861 60.7229 14.4372 61.3267C12.9765 61.9338 11.3969 61.9485 10.0586 61.4101L7.93418 60.5542L7.31445 60.3014C6.9282 60.1522 6.48528 60.1439 6.07277 60.315C5.2436 60.6582 4.84467 61.602 5.18065 62.4204L5.23425 62.5465C6.37591 64.9141 8.37654 66.8246 11.0187 67.8942C14.857 69.4374 19.099 68.7562 22.2352 66.4166L28.2327 68.9026L32.5335 70.6919L24.1094 74.194C22.7674 74.7543 21.6623 75.8785 21.0633 77.3282C19.8639 80.236 21.233 83.5584 24.1316 84.7613C25.5763 85.3635 27.1514 85.3729 28.495 84.8168L47.4997 76.9145L66.5037 84.8168C67.8473 85.3721 69.4219 85.3635 70.8671 84.7613C73.7657 83.5587 75.1347 80.2362 73.9354 77.3282C73.3361 75.8785 72.2309 74.7551 70.8893 74.194L62.4652 70.6919L66.766 68.9026L72.7635 66.4166C75.8997 68.7562 80.1407 69.4382 83.98 67.8942C86.6221 66.8247 88.6236 64.9142 89.7644 62.5465L89.818 62.4204C90.1554 61.6025 89.7559 60.6591 88.9273 60.3158L88.9263 60.3155ZM28.7018 80.0633C28.2741 81.0999 27.0883 81.5912 26.0555 81.1629C25.0232 80.7337 24.5329 79.5438 24.9606 78.5074C25.3899 77.4709 26.5741 76.9787 27.6061 77.4079C28.6391 77.8371 29.1298 79.0278 28.7018 80.0633ZM67.3916 77.4079C68.4239 76.9787 69.6077 77.4709 70.0371 78.5074C70.4648 79.544 69.9744 80.7337 68.9422 81.1629C67.9091 81.5912 66.7236 81.0999 66.2958 80.0633C65.8681 79.0268 66.3588 77.8371 67.3916 77.4079Z" fill="#393E41"/>
</svg>
