<svg width="97" height="97" viewBox="0 0 97 97" fill="none" xmlns="http://www.w3.org/2000/svg">
<rect width="97" height="97" rx="15" fill="#DCEDC7"/>
<path d="M48.7651 85.8484C47.6711 85.8484 46.7349 85.4583 45.9565 84.6782C45.1767 83.8967 44.7869 82.9578 44.7869 81.8614H52.7434C52.7434 82.9578 52.3542 83.8967 51.5758 84.6782C50.796 85.4583 49.8591 85.8484 48.7651 85.8484ZM42.7977 79.8679C42.2341 79.8679 41.7621 79.6765 41.3815 79.2937C40.9996 78.9123 40.8086 78.4392 40.8086 77.8743C40.8086 77.3095 40.9996 76.8364 41.3815 76.455C41.7621 76.0722 42.2341 75.8808 42.7977 75.8808H54.7325C55.2961 75.8808 55.7688 76.0722 56.1508 76.455C56.5313 76.8364 56.7216 77.3095 56.7216 77.8743C56.7216 78.4392 56.5313 78.9123 56.1508 79.2937C55.7688 79.6765 55.2961 79.8679 54.7325 79.8679H42.7977Z" fill="black"/>
<path d="M41.3815 73.1233C41.7621 73.5061 42.2341 73.6975 42.7977 73.6975H54.7325C55.2961 73.6975 55.7688 73.5061 56.1508 73.1233C56.5313 72.7419 56.7216 72.2688 56.7216 71.704C56.7216 71.1391 56.5313 70.666 56.1508 70.2846C55.7688 69.9018 55.2961 69.7104 54.7325 69.7104H42.7977C42.2341 69.7104 41.7621 69.9018 41.3815 70.2846C40.9996 70.666 40.8086 71.1391 40.8086 71.704C40.8086 72.2688 40.9996 72.7419 41.3815 73.1233Z" fill="black"/>
<path d="M25.7444 41.2001C25.7563 38.1718 26.3627 35.1761 27.5283 32.388C28.694 29.5998 30.3954 27.075 32.5334 24.9608C34.6715 22.8466 37.2032 21.1854 39.9811 20.074C42.7589 18.9627 45.7271 18.4235 48.7126 18.4878C51.6981 18.5522 54.6411 19.2188 57.3698 20.4489C60.0986 21.679 62.5585 23.4478 64.606 25.6523C66.6535 27.8567 68.2476 30.4526 69.2953 33.2884C70.343 36.1243 70.8234 39.1433 70.7084 42.1695C69.7853 41.913 68.8532 41.6915 67.9139 41.5052V41.203C67.9174 38.3756 67.327 35.58 66.1821 33.0021C65.0371 30.4241 63.3638 28.1231 61.2736 26.2521L61.0797 26.4631C60.5146 27.0846 59.7302 27.9342 58.8644 28.8466C57.172 30.6313 55.0663 32.761 53.6494 33.8444C53.7337 34.0326 53.9305 34.3462 54.3297 34.868L54.6811 35.3184C55.5695 36.4503 56.8543 38.0896 57.3744 40.1167C57.5121 40.6413 57.6105 41.1288 57.6836 41.5707C56.7278 41.7846 55.8197 42.0554 54.9651 42.3861C54.8904 41.8637 54.7872 41.3459 54.6558 40.8352C54.296 39.4353 53.4189 38.3035 52.508 37.1288L52.106 36.6128C51.6562 36.0255 51.0883 35.25 50.8803 34.4175C50.7441 33.9028 50.7687 33.3579 50.9505 32.858C51.153 32.3163 51.5212 31.9 51.9401 31.5807C53.1434 30.6684 55.1085 28.6926 56.8402 26.8708C57.6892 25.9756 58.4595 25.1402 59.0162 24.5273L59.033 24.5101C55.6234 22.2362 51.5986 21.0989 47.5207 21.2571C47.8497 21.89 48.2292 22.694 48.5666 23.6035C49.3565 25.7304 50.0481 28.7839 48.8055 31.4667C47.6697 33.9186 45.7215 34.5572 44.2175 34.9506L43.9448 35.0219C42.5222 35.3925 41.8222 35.575 41.3303 36.3334C40.8523 37.0661 40.9704 37.9699 41.4343 39.5066L41.5439 39.8601C41.7295 40.4617 41.9459 41.163 42.0584 41.8216C42.1989 42.637 42.2299 43.6349 41.7407 44.5871C41.3168 45.4597 40.6399 46.1799 39.8009 46.6513C39.1427 46.9894 38.4342 47.2157 37.7037 47.3213L37.4563 47.364C36.3093 47.5693 35.643 47.6862 35.0189 48.3648C34.5185 48.9065 34.2317 49.8131 34.0715 51.0476C34.0087 51.5536 33.9599 52.0613 33.9253 52.57L33.9028 52.8409C33.867 53.4202 33.7928 53.9965 33.6807 54.5658L33.6695 54.6228C36.5388 57.8296 40.3599 60.0014 44.5548 60.8095C44.0319 61.6534 43.554 62.523 43.1098 63.4154C38.169 62.2411 33.7648 59.4075 30.6123 55.3746C27.4598 51.3417 25.7443 46.3465 25.7444 41.2001ZM44.8556 22.2521C44.7368 22.0336 44.613 21.8178 44.4845 21.6049C41.4017 22.2129 38.5071 23.56 36.0422 25.5337C33.5774 27.5074 31.6139 30.0504 30.3158 32.9505C29.0176 35.8506 28.4224 39.0236 28.5798 42.2045C28.7372 45.3855 29.6428 48.4821 31.2208 51.2357C31.2377 51.0476 31.2602 50.8623 31.2855 50.6712C31.4598 49.3398 31.828 47.652 32.9638 46.4204C34.2626 45.0091 35.8454 44.7439 36.9081 44.5672L37.2117 44.513C37.7824 44.4104 38.1563 44.3134 38.4571 44.1481C38.8053 43.946 39.0817 43.6377 39.2471 43.2671C39.3286 43.1132 39.382 42.848 39.2892 42.3092C39.1852 41.7916 39.049 41.2812 38.8816 40.781L38.7467 40.3448C38.3193 38.9278 37.6952 36.7468 38.9856 34.7625C40.1102 33.0319 41.9066 32.59 43.1379 32.2849L43.5146 32.1908C44.8275 31.8487 45.685 31.5009 46.2613 30.2521C46.995 28.667 46.6633 26.5686 45.9352 24.6071C45.6315 23.7968 45.2708 23.0098 44.8556 22.2521ZM73.3257 46.1524C73.1998 45.9459 73.0239 45.7754 72.8148 45.6572C72.6057 45.5389 72.3703 45.4768 72.1309 45.4767H72.1084C71.998 45.4629 71.8882 45.4438 71.7795 45.4196C71.4975 45.3508 71.2172 45.2747 70.9389 45.1916L70.6718 45.1174C69.8895 44.8885 69.1011 44.6813 68.3075 44.4959C65.5873 43.8619 62.7786 43.7152 60.0086 44.0625C56.6294 44.4902 54.0458 45.6506 52.2831 47.3184C50.512 48.9948 49.6405 51.1274 49.6405 53.3056C49.6405 53.8273 49.6798 54.3206 49.7473 54.7881C52.6992 52.1737 56.3398 50.0611 60.3628 48.4303C60.5349 48.3561 60.7199 48.3175 60.907 48.3167C61.094 48.3159 61.2794 48.353 61.4521 48.4258C61.6248 48.4985 61.7815 48.6055 61.9129 48.7405C62.0444 48.8755 62.1479 49.0357 62.2175 49.2118C62.2871 49.3879 62.3214 49.5762 62.3183 49.7659C62.3152 49.9556 62.2747 50.1427 62.1994 50.3163C62.1241 50.49 62.0153 50.6466 61.8795 50.7771C61.7437 50.9075 61.5836 51.0092 61.4086 51.0761C59.2612 51.9368 57.1933 52.9892 55.2293 54.2208C50.5851 56.9692 47.6922 60.4988 45.5725 64.7981C45.4193 65.1344 45.4013 65.518 45.5221 65.8676C45.643 66.2171 45.8932 66.5053 46.22 66.6709C46.5467 66.8366 46.9242 66.8668 47.2724 66.7551C47.6207 66.6434 47.9124 66.3986 48.0858 66.0725C49.1654 63.8858 50.4558 61.9214 52.1566 60.1766C52.6082 61.0112 53.1586 61.7867 53.7956 62.4859C55.1 63.9114 57.2057 65.4339 60.1829 65.4339C62.0158 65.4339 63.5396 64.9578 64.7878 64.1338C66.0248 63.3184 66.9188 62.2094 67.5878 61.0433C68.6252 59.2472 69.2156 57.1089 69.6541 55.5237C69.7666 55.1246 69.865 54.7625 69.9606 54.4489C70.4264 52.9756 71.0485 51.5579 71.816 50.2208C72.1478 49.6306 72.4598 49.1174 72.7269 48.6755L72.7747 48.6014C73.008 48.2165 73.2442 47.8316 73.3876 47.538C73.4944 47.3208 73.5448 47.0795 73.534 46.837C73.5232 46.5945 73.4515 46.3589 73.3257 46.1524Z" fill="black"/>
<path d="M75.95 40.931H79M68.325 20.8259L71.375 17.7328M48.5 13.0931V10M28.675 20.8259L25.625 17.7328M21.05 40.931H18" stroke="black" stroke-width="4" stroke-linecap="round" stroke-linejoin="round"/>
</svg>
