<svg width="180" height="207" viewBox="0 0 180 207" fill="none" xmlns="http://www.w3.org/2000/svg">
<path fill-rule="evenodd" clip-rule="evenodd" d="M89.7 27.3C139.3 27.3 179.4 67.5001 179.4 117C179.4 166.6 139.2 206.7 89.7 206.7C40.2 206.7 0 166.5 0 117C0 67.5001 40.2 27.3 89.7 27.3Z" fill="#F9A148"/>
<path fill-rule="evenodd" clip-rule="evenodd" d="M48 142.8H52.5C54.7 142.8 56.6 144.6 56.6 146.9V166.5C56.6 168.7 54.8 170.6 52.5 170.6H48C45.8 170.6 43.9 168.8 43.9 166.5V146.9C43.9 144.7 45.8 142.8 48 142.8Z" fill="#1D1C1C"/>
<path fill-rule="evenodd" clip-rule="evenodd" d="M127 142.8H131.5C133.7 142.8 135.6 144.6 135.6 146.9V166.5C135.6 168.7 133.8 170.6 131.5 170.6H127C124.8 170.6 122.9 168.8 122.9 166.5V146.9C122.9 144.7 124.7 142.8 127 142.8Z" fill="#1D1C1C"/>
<path fill-rule="evenodd" clip-rule="evenodd" d="M44.5 38.8H89.7H134.9L127.6 160.5C127.4 164.1 124.6 167.1 121 167.1H89.7H58.4C54.8 167.1 52 164.1 51.8 160.5L44.5 38.8Z" fill="#F68931"/>
<path fill-rule="evenodd" clip-rule="evenodd" d="M127.8 159.4L127.7 160.5C127.5 164.1 124.7 167.1 121.1 167.1H89.8H58.5C54.9 167.1 52.1 164.1 51.9 160.5L51.8 159.4H127.8Z" fill="#D7772A"/>
<path fill-rule="evenodd" clip-rule="evenodd" d="M44.5 38.8H89.7H135L134.8 41.1001H44.6L44.5 38.8Z" fill="#B66A32"/>
<path fill-rule="evenodd" clip-rule="evenodd" d="M53.8 0H125.7C127.5 0 129 1.49999 129 3.29999V16.5C129 18.3 127.5 19.8 125.7 19.8H53.8C52 19.8 50.5 18.3 50.5 16.5V3.29999C50.5 1.39999 52 0 53.8 0Z" fill="#E78029"/>
<path fill-rule="evenodd" clip-rule="evenodd" d="M47.4999 8.6001H131.9C133.7 8.6001 135.2 10.1001 135.2 11.9001V25.1001C135.2 26.9001 133.7 28.4001 131.9 28.4001H47.4999C45.6999 28.4001 44.2 26.9001 44.2 25.1001V11.9001C44.3 10.0001 45.7999 8.6001 47.4999 8.6001Z" fill="#F79135"/>
<path fill-rule="evenodd" clip-rule="evenodd" d="M40.3 19.2H139.2C141 19.2 142.5 20.6999 142.5 22.4999V35.7C142.5 37.5 141 38.9999 139.2 38.9999H40.3C38.5 38.9999 37 37.5 37 35.7V22.4999C37 20.6999 38.5 19.2 40.3 19.2Z" fill="#FDBA4B"/>
<path fill-rule="evenodd" clip-rule="evenodd" d="M93.8 96L91.4 97.3C91.5 97.3 99 98.5001 99.7 98.6001L103.2 91L101.5 91.9C101.4 91.7 99.3 88.2001 99.3 88.1001C98.4 86.6001 97.1 84.9 95.5 84.4C95 84.2 94.7 84.3 94.1 84.3H86.6C86.1 84.3 85.6 84.3 85.1 84.3C87.1 84.6 88.4 86.3 89.3 87.8L90.2 89.5C90.5 90.1 90.8 90.6 91.1 91.2C91.4 91.8 91.7 92.3 92 92.9C92.4 93.7 92.9 94.6 93.3 95.4C93.5 95.3 93.8 95.8 93.8 96Z" fill="white"/>
<path fill-rule="evenodd" clip-rule="evenodd" d="M89.2 115.2C89.2 115.3 89.3999 115.5 89.4999 115.6L92.3 119.4C92.5 119.7 92.6999 120 92.8999 120.2C92.9999 120.4 94.1 121.8 94.2 121.9V120C94.8 119.9 96.5 119.9 97.2 119.9C99.4 119.8 101.8 119.8 103.6 118.4C104.2 118 104.4 117.2 104.8 116.5C105.7 114.8 106.6 113 107.6 111.4L108.7 109.3C108.3 109.7 108.1 109.9 107.6 110.3C107.2 110.6 106.7 110.8 106.2 110.9C104.9 111.3 103.9 111.3 102.5 111.3C101.1 111.3 99.7999 111.3 98.3999 111.3C97.6999 111.3 96.9999 111.3 96.3999 111.3C95.7999 111.3 95 111.3 94.3 111.3V108.6C94.2 108.7 90.0999 114.1 89.4999 114.9C89.3999 114.9 89.2 115.1 89.2 115.2Z" fill="white"/>
<path fill-rule="evenodd" clip-rule="evenodd" d="M72.1 98L73.7 99C73.6 99.2 73.5 99.4 73.4 99.5L72.5 101.1C72.1 101.8 71.7 102.5 71.3 103.2C70.9 103.9 70.6 104.7 70.4 105.6C70.2 106.4 70 107.8 70.4 108.5C70.8 109.2 71.2 109.9 71.6 110.6C72 111.3 72.4 112 72.8 112.7L74.6 115.8C74.7 116 74.8 116.1 74.9 116.3C75 116.5 75.1 116.7 75.2 116.8C75 116 74.9 115.6 74.9 114.7C75 114 75.2 113.3 75.4 112.7C75.6 112.1 75.9 111.5 76.2 111.1C76.5 110.6 76.8 110.1 77.1 109.6L80.4 104.2C80.5 104.1 80.6 104 80.6 103.8C80.7 103.7 80.8 103.5 80.8 103.4L83.2 104.8L80.1 97L72.1 98Z" fill="white"/>
<path fill-rule="evenodd" clip-rule="evenodd" d="M85.2001 119.8L85.4 111.1L77.9 110.9L77.4 111.6C76.4 113.1 75.7 114.5 76.1 116.4C76.2 116.7 76.3 117.1 76.4 117.3C76.6 117.7 76.9001 118.1 77.2001 118.4C78.0001 119.1 79.3001 119.7 80.3001 119.7C80.8001 119.8 85.0001 119.9 85.2001 119.8Z" fill="white"/>
<path fill-rule="evenodd" clip-rule="evenodd" d="M77.8 91.1L85.2 95.6L88.7 89.9C88.8 89.7 89 89.5 89.1 89.3C89.2 89.2 88.9 88.7 88.9 88.6C88.3 87.3 87.3 85.8 86.1 85.2C85.9 85.1 85.7 85 85.4 84.9C84.9 84.7 84.3 84.6 83.6 84.7C82.5 84.9 81.7 85.5 80.9 86.1C80.8 86.2 80.5 86.5 80.4 86.6C80.1 87 78.8 89.2 78.5 89.8L77.8 91.1Z" fill="white"/>
<path fill-rule="evenodd" clip-rule="evenodd" d="M98.6 103.8L102.4 110.3C103.8 110.5 105.9 110.3 107 109.8L107.8 109.3C109.4 108.2 109.5 106.3 109 104.5C108.8 103.9 108.4 103.3 108.1 102.8C107.5 101.7 106.8 100.6 106.2 99.5L98.6 103.8Z" fill="white"/>
<path fill-rule="evenodd" clip-rule="evenodd" d="M75.7 11H103.8C104.9 11 105.8 11.9 105.8 13V17.9H73.7V13C73.7 11.9 74.6 11 75.7 11Z" fill="#B66A32"/>
<path fill-rule="evenodd" clip-rule="evenodd" d="M63.9 56.5H111.6C114 56.5 115.9 58.4 115.9 60.8V65.4C115.9 67.8 114 69.7 111.6 69.7H63.9C61.5 69.7 59.6 67.8 59.6 65.4V60.8C59.5 58.4 61.5 56.5 63.9 56.5Z" fill="white"/>
</svg>
