<svg width="422" height="144" viewBox="0 0 422 144" fill="none" xmlns="http://www.w3.org/2000/svg">
<path d="M160.737 120.44V49.1608H174.912V57.8682H175.553C176.183 56.4732 177.095 55.0557 178.287 53.6158C179.502 52.1533 181.077 50.9383 183.012 49.9708C184.97 48.9808 187.399 48.4858 190.302 48.4858C194.082 48.4858 197.569 49.4758 200.764 51.4558C203.959 53.4133 206.513 56.372 208.425 60.3319C210.338 64.2693 211.294 69.208 211.294 75.1479C211.294 80.9303 210.36 85.8127 208.493 89.7952C206.648 93.7551 204.128 96.7588 200.933 98.8063C197.761 100.831 194.206 101.844 190.268 101.844C187.478 101.844 185.105 101.382 183.147 100.46C181.212 99.5375 179.626 98.3788 178.388 96.9838C177.151 95.5663 176.206 94.1376 175.553 92.6976H175.115V120.44H160.737ZM174.811 75.0804C174.811 78.1629 175.238 80.8516 176.093 83.1465C176.948 85.4415 178.186 87.2302 179.806 88.5127C181.426 89.7727 183.395 90.4027 185.712 90.4027C188.052 90.4027 190.032 89.7614 191.652 88.479C193.272 87.174 194.498 85.374 195.331 83.079C196.186 80.7616 196.613 78.0954 196.613 75.0804C196.613 72.088 196.197 69.4555 195.364 67.183C194.532 64.9106 193.306 63.1331 191.686 61.8506C190.066 60.5681 188.074 59.9269 185.712 59.9269C183.372 59.9269 181.392 60.5456 179.772 61.7831C178.175 63.0206 176.948 64.7756 176.093 67.048C175.238 69.3205 174.811 71.998 174.811 75.0804ZM220.879 120.44V49.1608H235.054V57.8682H235.695C236.325 56.4732 237.236 55.0557 238.429 53.6158C239.644 52.1533 241.219 50.9383 243.154 49.9708C245.111 48.9808 247.541 48.4858 250.443 48.4858C254.223 48.4858 257.711 49.4758 260.906 51.4558C264.101 53.4133 266.654 56.372 268.567 60.3319C270.479 64.2693 271.436 69.208 271.436 75.1479C271.436 80.9303 270.502 85.8127 268.634 89.7952C266.789 93.7551 264.27 96.7588 261.075 98.8063C257.902 100.831 254.347 101.844 250.41 101.844C247.62 101.844 245.246 101.382 243.289 100.46C241.354 99.5375 239.767 98.3788 238.53 96.9838C237.292 95.5663 236.347 94.1376 235.695 92.6976H235.256V120.44H220.879ZM234.952 75.0804C234.952 78.1629 235.38 80.8516 236.235 83.1465C237.09 85.4415 238.327 87.2302 239.947 88.5127C241.567 89.7727 243.536 90.4027 245.854 90.4027C248.194 90.4027 250.173 89.7614 251.793 88.479C253.413 87.174 254.64 85.374 255.472 83.079C256.327 80.7616 256.755 78.0954 256.755 75.0804C256.755 72.088 256.338 69.4555 255.506 67.183C254.673 64.9106 253.447 63.1331 251.827 61.8506C250.207 60.5681 248.216 59.9269 245.854 59.9269C243.514 59.9269 241.534 60.5456 239.914 61.7831C238.316 63.0206 237.09 64.7756 236.235 67.048C235.38 69.3205 234.952 71.998 234.952 75.0804ZM305.658 49.1608V55.9107H277.713V49.1608H305.658ZM286.083 101V42.0059C286.083 39.036 286.78 36.561 288.175 34.5811C289.57 32.6011 291.382 31.1161 293.609 30.1261C295.837 29.1361 298.188 28.6412 300.663 28.6412C302.62 28.6412 304.218 28.7986 305.455 29.1136C306.693 29.4286 307.615 29.7211 308.223 29.9911L305.928 36.876C305.523 36.741 304.96 36.5723 304.24 36.3698C303.543 36.1673 302.62 36.066 301.473 36.066C298.84 36.066 296.939 36.7298 295.769 38.0573C294.622 39.3847 294.048 41.331 294.048 43.8959V101H286.083ZM330.59 102.215C327.305 102.215 324.324 101.596 321.646 100.359C318.969 99.0988 316.843 97.2876 315.268 94.9251C313.693 92.5401 312.905 89.6602 312.905 86.2852C312.905 83.3153 313.49 80.9078 314.66 79.0628C315.83 77.1954 317.394 75.7329 319.351 74.6754C321.309 73.6179 323.469 72.8304 325.831 72.313C328.216 71.773 330.613 71.3455 333.02 71.0305C336.17 70.6255 338.724 70.3217 340.681 70.1192C342.661 69.8942 344.101 69.523 345.001 69.0055C345.924 68.488 346.385 67.588 346.385 66.3056V66.0356C346.385 62.7056 345.474 60.1182 343.651 58.2732C341.851 56.4282 339.117 55.5057 335.45 55.5057C331.648 55.5057 328.666 56.3382 326.506 58.0032C324.346 59.6682 322.828 61.4456 321.95 63.3356L314.39 60.6356C315.74 57.4857 317.54 55.0332 319.79 53.2783C322.063 51.5008 324.538 50.2633 327.215 49.5658C329.915 48.8458 332.57 48.4858 335.18 48.4858C336.845 48.4858 338.757 48.6883 340.917 49.0933C343.1 49.4758 345.204 50.2746 347.229 51.4895C349.276 52.7045 350.975 54.5382 352.325 56.9907C353.675 59.4432 354.35 62.7281 354.35 66.8455V101H346.385V93.9801H345.98C345.44 95.1051 344.54 96.3088 343.28 97.5913C342.02 98.8738 340.344 99.965 338.251 100.865C336.159 101.765 333.605 102.215 330.59 102.215ZM331.805 95.0601C334.955 95.0601 337.61 94.4414 339.77 93.2039C341.952 91.9664 343.595 90.3689 344.697 88.4115C345.822 86.454 346.385 84.3953 346.385 82.2353V74.9454C346.047 75.3504 345.305 75.7217 344.157 76.0591C343.032 76.3741 341.727 76.6554 340.242 76.9029C338.78 77.1279 337.351 77.3304 335.956 77.5104C334.584 77.6679 333.47 77.8029 332.615 77.9154C330.545 78.1854 328.61 78.6241 326.81 79.2316C325.033 79.8166 323.593 80.7053 322.49 81.8978C321.41 83.0678 320.87 84.6653 320.87 86.6902C320.87 89.4577 321.894 91.5502 323.941 92.9676C326.011 94.3626 328.633 95.0601 331.805 95.0601ZM376.852 31.8811V101H368.887V31.8811H376.852ZM399.405 31.8811V101H391.44V31.8811H399.405Z" fill="#066830"/>
<path d="M149 72.3987C149 111.887 115.645 143.899 74.5 143.899C33.3548 143.899 0 111.887 0 72.3987C0 32.9103 33.3548 0.898682 74.5 0.898682C115.645 0.898682 149 32.9103 149 72.3987Z" fill="#058E3F"/>
<path d="M110.882 93L95.8431 93L99.8286 105.299L93 116.51L104.671 117.366C113.374 117.738 119.176 108.475 115.048 100.812L110.882 93Z" fill="#07592A"/>
<path d="M35.7958 99.4935L49.7054 76.5413L35.9818 77.0249L29.0269 64.1166L17.7579 81.898C13.109 89.2636 18.2042 98.8983 26.907 99.1959L35.7958 99.4935Z" fill="#07592A"/>
<path d="M75.6861 20.3138L71 27.8654L83.9055 51.4128L90.3396 39.2857L104.993 39.7321L95.2117 21.0578C91.195 13.3203 80.2979 12.9111 75.6861 20.3138Z" fill="#07592A"/>
<path d="M47.6607 107.491H31.9419L64.5093 27.7814H83.4125L115.33 107.491H99.6117L74.2319 45.9963H73.6899L47.6607 107.491ZM53.4484 76.1599H93.6546V89.3151H53.4484V76.1599Z" fill="white"/>
<path d="M68.4871 49.388L62.3505 45.5565L81.8017 16.1315H58.5198C55.5445 16.1315 52.7551 17.6567 51.1931 20.1862L42.8994 33.4293L36.9487 29.7094L45.8747 50.4668L68.4871 49.388Z" fill="#86CF86"/>
<path d="M46.9092 100.091L21.0679 97.9338L32.7089 118.096C34.1966 120.663 36.9115 122.3 39.8869 122.411L46.1281 122.969L45.8678 130L59.3683 111.884L47.1323 92.8374L46.9092 100.091Z" fill="#86CF86"/>
<path d="M130.443 82.4126L124.212 68.0838L130.661 65.2658L108.508 60.8895L96.5984 80.1472L103.239 77.2695L116.469 109.979L129.642 90.7828C131.29 88.2994 131.61 85.1528 130.443 82.4126Z" fill="#86CF86"/>
</svg>
